<svg width="33" height="33" viewBox="0 0 33 33" fill="none" xmlns="http://www.w3.org/2000/svg">
<rect width="33" height="33" rx="16.5" fill="#193364"/>
<path d="M22.7153 22.6827L21.8111 12.7334C21.7856 12.4593 21.5561 12.25 21.2809 12.25H19.6872V11.1875C19.6872 10.3333 19.3567 9.53106 18.7564 8.93075C18.1561 8.33044 17.3539 8 16.4997 8C14.7423 8 13.3122 9.43012 13.3122 11.1875V12.25H11.7184C11.4432 12.25 11.2137 12.4593 11.1893 12.7334L10.2851 22.6827C10.2309 23.2756 10.4307 23.8684 10.8323 24.3083C11.2339 24.7482 11.8055 25 12.4016 25H20.5988C21.1949 25 21.7665 24.7482 22.1681 24.3083C22.5697 23.8684 22.7684 23.2756 22.7153 22.6827ZM14.3747 11.1875C14.3747 10.0156 15.3277 9.0625 16.4997 9.0625C17.0702 9.0625 17.6047 9.28244 18.0052 9.68194C18.4058 10.0814 18.6247 10.6169 18.6247 11.1875V12.25H14.3747V11.1875ZM21.3829 23.5922C21.1789 23.8142 20.9005 23.9375 20.5977 23.9375H12.4016C12.0999 23.9375 11.8204 23.8142 11.6175 23.5911C11.4135 23.368 11.3168 23.0801 11.3444 22.7783L12.204 13.3125H13.3122V14.9062C13.3122 15.1995 13.5502 15.4375 13.8434 15.4375C14.1367 15.4375 14.3747 15.1995 14.3747 14.9062V13.3125H18.6247V14.9062C18.6247 15.1995 18.8627 15.4375 19.1559 15.4375C19.4492 15.4375 19.6872 15.1995 19.6872 14.9062V13.3125H20.7954L21.656 22.7794C21.6836 23.0801 21.5869 23.3691 21.3829 23.5922Z" fill="white"/>
<line x1="16.5" y1="17.5" x2="16.5" y2="21.5" stroke="white" stroke-linecap="round"/>
<line x1="14.5" y1="19.5" x2="18.5" y2="19.5" stroke="white" stroke-linecap="round"/>
</svg>
