<svg width="33" height="33" viewBox="0 0 33 33" fill="none" xmlns="http://www.w3.org/2000/svg">
<rect x="0.5" y="0.5" width="32" height="32" rx="16" stroke="#F2F7FC"/>
<path d="M22.7616 11.2654C22.3998 10.9035 21.9703 10.6163 21.4975 10.4204C21.0247 10.2245 20.5179 10.1237 20.0062 10.1237C19.4944 10.1237 18.9877 10.2245 18.5149 10.4204C18.0421 10.6163 17.6125 10.9035 17.2508 11.2654L16.4999 12.0163L15.7491 11.2654C15.0183 10.5346 14.0272 10.1241 12.9937 10.1241C11.9602 10.1241 10.969 10.5346 10.2383 11.2654C9.50747 11.9962 9.09692 12.9874 9.09692 14.0208C9.09692 15.0543 9.50747 16.0455 10.2383 16.7763L10.9891 17.5271L16.4999 23.0379L22.0108 17.5271L22.7616 16.7763C23.1235 16.4145 23.4107 15.9849 23.6066 15.5121C23.8025 15.0394 23.9033 14.5326 23.9033 14.0208C23.9033 13.5091 23.8025 13.0023 23.6066 12.5296C23.4107 12.0568 23.1235 11.6272 22.7616 11.2654Z" fill="#FF4343" stroke="#FF4343" stroke-width="1.2" stroke-linecap="round" stroke-linejoin="round"/>
</svg>
