<svg width="80" height="21" viewBox="0 0 80 21" fill="none" xmlns="http://www.w3.org/2000/svg">
<path d="M5.82492 16.126C4.83559 16.126 3.99559 15.9207 3.30492 15.51C2.61426 15.0993 2.08226 14.516 1.70892 13.76C1.34492 13.004 1.16292 12.1033 1.16292 11.058C1.16292 10.0127 1.34492 9.11667 1.70892 8.37C2.08226 7.614 2.61426 7.03067 3.30492 6.62C3.99559 6.20933 4.83559 6.004 5.82492 6.004C6.52492 6.004 7.15026 6.11133 7.70092 6.326C8.25159 6.54067 8.73226 6.85333 9.14292 7.264L8.70892 8.188C8.26092 7.796 7.81759 7.51133 7.37892 7.334C6.94026 7.14733 6.42692 7.054 5.83892 7.054C4.70959 7.054 3.85092 7.404 3.26292 8.104C2.67492 8.804 2.38092 9.78867 2.38092 11.058C2.38092 12.3273 2.67492 13.3167 3.26292 14.026C3.85092 14.726 4.70959 15.076 5.83892 15.076C6.42692 15.076 6.94026 14.9873 7.37892 14.81C7.81759 14.6233 8.26092 14.3293 8.70892 13.928L9.14292 14.866C8.73226 15.2673 8.25159 15.58 7.70092 15.804C7.15026 16.0187 6.52492 16.126 5.82492 16.126ZM13.4265 16.126C12.8012 16.126 12.2552 15.9813 11.7885 15.692C11.3218 15.3933 10.9578 14.9733 10.6965 14.432C10.4445 13.8907 10.3185 13.242 10.3185 12.486C10.3185 11.7207 10.4445 11.0673 10.6965 10.526C10.9578 9.98467 11.3218 9.56933 11.7885 9.28C12.2552 8.99067 12.8012 8.846 13.4265 8.846C14.0612 8.846 14.6072 9.00933 15.0645 9.336C15.5312 9.65333 15.8392 10.0873 15.9885 10.638H15.8205L15.9745 8.972H17.0665C17.0385 9.24267 17.0105 9.518 16.9825 9.798C16.9638 10.0687 16.9545 10.3347 16.9545 10.596V16H15.8205V14.348H15.9745C15.8252 14.8987 15.5172 15.3327 15.0505 15.65C14.5838 15.9673 14.0425 16.126 13.4265 16.126ZM13.6505 15.202C14.3225 15.202 14.8545 14.9733 15.2465 14.516C15.6385 14.0493 15.8345 13.3727 15.8345 12.486C15.8345 11.59 15.6385 10.9133 15.2465 10.456C14.8545 9.98933 14.3225 9.756 13.6505 9.756C12.9878 9.756 12.4558 9.98933 12.0545 10.456C11.6625 10.9133 11.4665 11.59 11.4665 12.486C11.4665 13.3727 11.6625 14.0493 12.0545 14.516C12.4558 14.9733 12.9878 15.202 13.6505 15.202ZM19.147 16V10.596C19.147 10.3347 19.133 10.0687 19.105 9.798C19.0863 9.518 19.063 9.24267 19.035 8.972H20.127L20.267 10.512H20.099C20.3043 9.97067 20.631 9.56 21.079 9.28C21.5363 8.99067 22.0637 8.846 22.661 8.846C23.4917 8.846 24.117 9.07 24.537 9.518C24.9663 9.95667 25.181 10.652 25.181 11.604V16H24.047V11.674C24.047 11.0113 23.9117 10.5307 23.641 10.232C23.3797 9.924 22.969 9.77 22.409 9.77C21.7557 9.77 21.2377 9.97067 20.855 10.372C20.4723 10.7733 20.281 11.31 20.281 11.982V16H19.147ZM30.3041 16.126C29.6135 16.126 29.0115 15.9767 28.4981 15.678C27.9941 15.3793 27.6021 14.9547 27.3221 14.404C27.0515 13.8533 26.9161 13.2 26.9161 12.444C26.9161 11.6787 27.0561 11.03 27.3361 10.498C27.6161 9.95667 28.0081 9.546 28.5121 9.266C29.0255 8.986 29.6228 8.846 30.3041 8.846C30.7521 8.846 31.1861 8.92533 31.6061 9.084C32.0355 9.24267 32.3901 9.46667 32.6701 9.756L32.2641 10.568C31.9841 10.2973 31.6761 10.0967 31.3401 9.966C31.0135 9.83533 30.6915 9.77 30.3741 9.77C29.6461 9.77 29.0815 9.99867 28.6801 10.456C28.2788 10.9133 28.0781 11.5807 28.0781 12.458C28.0781 13.326 28.2788 13.998 28.6801 14.474C29.0815 14.95 29.6461 15.188 30.3741 15.188C30.6821 15.188 30.9995 15.1273 31.3261 15.006C31.6621 14.8847 31.9748 14.684 32.2641 14.404L32.6701 15.202C32.3808 15.5007 32.0215 15.7293 31.5921 15.888C31.1628 16.0467 30.7335 16.126 30.3041 16.126ZM37.2671 16.126C36.1657 16.126 35.2977 15.8087 34.6631 15.174C34.0284 14.53 33.7111 13.6387 33.7111 12.5C33.7111 11.7627 33.8511 11.1233 34.1311 10.582C34.4111 10.0313 34.8031 9.60667 35.3071 9.308C35.8111 9 36.3897 8.846 37.0431 8.846C37.6871 8.846 38.2284 8.98133 38.6671 9.252C39.1057 9.52267 39.4417 9.91 39.6751 10.414C39.9084 10.9087 40.0251 11.4967 40.0251 12.178V12.598H34.5791V11.884H39.2831L39.0451 12.066C39.0451 11.3193 38.8771 10.736 38.5411 10.316C38.2051 9.896 37.7057 9.686 37.0431 9.686C36.3431 9.686 35.7971 9.93333 35.4051 10.428C35.0131 10.9133 34.8171 11.5713 34.8171 12.402V12.528C34.8171 13.4053 35.0317 14.0727 35.4611 14.53C35.8997 14.978 36.5111 15.202 37.2951 15.202C37.7151 15.202 38.1071 15.1413 38.4711 15.02C38.8444 14.8893 39.1991 14.6793 39.5351 14.39L39.9271 15.188C39.6191 15.4867 39.2271 15.72 38.7511 15.888C38.2844 16.0467 37.7897 16.126 37.2671 16.126ZM41.7603 16V5.696H42.8943V16H41.7603ZM48.2182 16.126C47.1169 16.126 46.2489 15.8087 45.6142 15.174C44.9796 14.53 44.6622 13.6387 44.6622 12.5C44.6622 11.7627 44.8022 11.1233 45.0822 10.582C45.3622 10.0313 45.7542 9.60667 46.2582 9.308C46.7622 9 47.3409 8.846 47.9942 8.846C48.6382 8.846 49.1796 8.98133 49.6182 9.252C50.0569 9.52267 50.3929 9.91 50.6262 10.414C50.8596 10.9087 50.9762 11.4967 50.9762 12.178V12.598H45.5302V11.884H50.2342L49.9962 12.066C49.9962 11.3193 49.8282 10.736 49.4922 10.316C49.1562 9.896 48.6569 9.686 47.9942 9.686C47.2942 9.686 46.7482 9.93333 46.3562 10.428C45.9642 10.9133 45.7682 11.5713 45.7682 12.402V12.528C45.7682 13.4053 45.9829 14.0727 46.4122 14.53C46.8509 14.978 47.4622 15.202 48.2462 15.202C48.6662 15.202 49.0582 15.1413 49.4222 15.02C49.7956 14.8893 50.1502 14.6793 50.4862 14.39L50.8782 15.188C50.5702 15.4867 50.1782 15.72 49.7022 15.888C49.2356 16.0467 48.7409 16.126 48.2182 16.126ZM55.3715 16.126C54.7555 16.126 54.2141 15.9813 53.7475 15.692C53.2808 15.3933 52.9168 14.9733 52.6555 14.432C52.4035 13.8907 52.2775 13.242 52.2775 12.486C52.2775 11.7207 52.4035 11.0673 52.6555 10.526C52.9168 9.98467 53.2808 9.56933 53.7475 9.28C54.2141 8.99067 54.7555 8.846 55.3715 8.846C56.0061 8.846 56.5521 9.00467 57.0095 9.322C57.4761 9.63933 57.7888 10.0687 57.9475 10.61H57.7795V5.696H58.9135V16H57.7935V14.32H57.9475C57.7981 14.88 57.4901 15.3233 57.0235 15.65C56.5568 15.9673 56.0061 16.126 55.3715 16.126ZM55.6095 15.202C56.2721 15.202 56.8041 14.9733 57.2055 14.516C57.6068 14.0493 57.8075 13.3727 57.8075 12.486C57.8075 11.59 57.6068 10.9133 57.2055 10.456C56.8041 9.98933 56.2721 9.756 55.6095 9.756C54.9468 9.756 54.4148 9.98933 54.0135 10.456C53.6215 10.9133 53.4255 11.59 53.4255 12.486C53.4255 13.3727 53.6215 14.0493 54.0135 14.516C54.4148 14.9733 54.9468 15.202 55.6095 15.202Z" fill="#FF4343"/>
<path d="M76.5 7.5L69.5 14.5" stroke="#FF4343" stroke-width="1.5" stroke-linecap="round" stroke-linejoin="round"/>
<path d="M69.5 7.5L76.5 14.5" stroke="#FF4343" stroke-width="1.5" stroke-linecap="round" stroke-linejoin="round"/>
</svg>
