<svg width="81" height="21" viewBox="0 0 81 21" fill="none" xmlns="http://www.w3.org/2000/svg">
<g clip-path="url(#clip0_25_2019)">
<path d="M79.3333 7L72 14.3333L68.6666 11" stroke="#51BA74" stroke-width="1.5" stroke-linecap="round" stroke-linejoin="round"/>
</g>
<path d="M1.5152 16V6.13H4.7912C5.8832 6.13 6.8072 6.32133 7.5632 6.704C8.3192 7.07733 8.8932 7.63267 9.2852 8.37C9.6772 9.098 9.8732 9.994 9.8732 11.058C9.8732 12.1127 9.6772 13.0087 9.2852 13.746C8.8932 14.4833 8.3192 15.0433 7.5632 15.426C6.8072 15.8087 5.8832 16 4.7912 16H1.5152ZM2.6772 15.006H4.7072C6.0512 15.006 7.04987 14.6793 7.7032 14.026C8.35654 13.3633 8.6832 12.374 8.6832 11.058C8.6832 9.73267 8.35654 8.74333 7.7032 8.09C7.04987 7.43667 6.0512 7.11 4.7072 7.11H2.6772V15.006ZM14.9702 16.126C13.8689 16.126 13.0009 15.8087 12.3662 15.174C11.7315 14.53 11.4142 13.6387 11.4142 12.5C11.4142 11.7627 11.5542 11.1233 11.8342 10.582C12.1142 10.0313 12.5062 9.60667 13.0102 9.308C13.5142 9 14.0929 8.846 14.7462 8.846C15.3902 8.846 15.9315 8.98133 16.3702 9.252C16.8089 9.52267 17.1449 9.91 17.3782 10.414C17.6115 10.9087 17.7282 11.4967 17.7282 12.178V12.598H12.2822V11.884H16.9862L16.7482 12.066C16.7482 11.3193 16.5802 10.736 16.2442 10.316C15.9082 9.896 15.4089 9.686 14.7462 9.686C14.0462 9.686 13.5002 9.93333 13.1082 10.428C12.7162 10.9133 12.5202 11.5713 12.5202 12.402V12.528C12.5202 13.4053 12.7349 14.0727 13.1642 14.53C13.6029 14.978 14.2142 15.202 14.9982 15.202C15.4182 15.202 15.8102 15.1413 16.1742 15.02C16.5475 14.8893 16.9022 14.6793 17.2382 14.39L17.6302 15.188C17.3222 15.4867 16.9302 15.72 16.4542 15.888C15.9875 16.0467 15.4929 16.126 14.9702 16.126ZM19.4634 16V5.696H20.5974V16H19.4634ZM22.7994 16V8.972H23.9334V16H22.7994ZM22.6594 7.376V6.102H24.0594V7.376H22.6594ZM28.2073 16L25.1973 8.972H26.4293L28.9493 15.16H28.5713L31.1193 8.972H32.2953L29.2853 16H28.2073ZM36.5991 16.126C35.4978 16.126 34.6298 15.8087 33.9951 15.174C33.3604 14.53 33.0431 13.6387 33.0431 12.5C33.0431 11.7627 33.1831 11.1233 33.4631 10.582C33.7431 10.0313 34.1351 9.60667 34.6391 9.308C35.1431 9 35.7218 8.846 36.3751 8.846C37.0191 8.846 37.5604 8.98133 37.9991 9.252C38.4378 9.52267 38.7738 9.91 39.0071 10.414C39.2404 10.9087 39.3571 11.4967 39.3571 12.178V12.598H33.9111V11.884H38.6151L38.3771 12.066C38.3771 11.3193 38.2091 10.736 37.8731 10.316C37.5371 9.896 37.0378 9.686 36.3751 9.686C35.6751 9.686 35.1291 9.93333 34.7371 10.428C34.3451 10.9133 34.1491 11.5713 34.1491 12.402V12.528C34.1491 13.4053 34.3638 14.0727 34.7931 14.53C35.2318 14.978 35.8431 15.202 36.6271 15.202C37.0471 15.202 37.4391 15.1413 37.8031 15.02C38.1764 14.8893 38.5311 14.6793 38.8671 14.39L39.2591 15.188C38.9511 15.4867 38.5591 15.72 38.0831 15.888C37.6164 16.0467 37.1218 16.126 36.5991 16.126ZM41.0643 16V10.666C41.0643 10.386 41.055 10.1013 41.0363 9.812C41.027 9.52267 41.0083 9.24267 40.9803 8.972H42.0723L42.2123 10.68L42.0163 10.694C42.1097 10.274 42.273 9.92867 42.5063 9.658C42.7397 9.38733 43.015 9.18667 43.3323 9.056C43.6497 8.916 43.981 8.846 44.3263 8.846C44.4663 8.846 44.5877 8.85067 44.6903 8.86C44.8023 8.86933 44.905 8.89267 44.9983 8.93L44.9843 9.938C44.8443 9.89133 44.7137 9.86333 44.5923 9.854C44.4803 9.83533 44.3497 9.826 44.2003 9.826C43.7897 9.826 43.4303 9.924 43.1223 10.12C42.8237 10.316 42.595 10.568 42.4363 10.876C42.287 11.184 42.2123 11.5107 42.2123 11.856V16H41.0643ZM49.2182 16.126C48.1169 16.126 47.2489 15.8087 46.6142 15.174C45.9796 14.53 45.6622 13.6387 45.6622 12.5C45.6622 11.7627 45.8022 11.1233 46.0822 10.582C46.3622 10.0313 46.7542 9.60667 47.2582 9.308C47.7622 9 48.3409 8.846 48.9942 8.846C49.6382 8.846 50.1796 8.98133 50.6182 9.252C51.0569 9.52267 51.3929 9.91 51.6262 10.414C51.8596 10.9087 51.9762 11.4967 51.9762 12.178V12.598H46.5302V11.884H51.2342L50.9962 12.066C50.9962 11.3193 50.8282 10.736 50.4922 10.316C50.1562 9.896 49.6569 9.686 48.9942 9.686C48.2942 9.686 47.7482 9.93333 47.3562 10.428C46.9642 10.9133 46.7682 11.5713 46.7682 12.402V12.528C46.7682 13.4053 46.9829 14.0727 47.4122 14.53C47.8509 14.978 48.4622 15.202 49.2462 15.202C49.6662 15.202 50.0582 15.1413 50.4222 15.02C50.7956 14.8893 51.1502 14.6793 51.4862 14.39L51.8782 15.188C51.5702 15.4867 51.1782 15.72 50.7022 15.888C50.2356 16.0467 49.7409 16.126 49.2182 16.126ZM56.3715 16.126C55.7555 16.126 55.2141 15.9813 54.7475 15.692C54.2808 15.3933 53.9168 14.9733 53.6555 14.432C53.4035 13.8907 53.2775 13.242 53.2775 12.486C53.2775 11.7207 53.4035 11.0673 53.6555 10.526C53.9168 9.98467 54.2808 9.56933 54.7475 9.28C55.2141 8.99067 55.7555 8.846 56.3715 8.846C57.0061 8.846 57.5521 9.00467 58.0095 9.322C58.4761 9.63933 58.7888 10.0687 58.9475 10.61H58.7795V5.696H59.9135V16H58.7935V14.32H58.9475C58.7981 14.88 58.4901 15.3233 58.0235 15.65C57.5568 15.9673 57.0061 16.126 56.3715 16.126ZM56.6095 15.202C57.2721 15.202 57.8041 14.9733 58.2055 14.516C58.6068 14.0493 58.8075 13.3727 58.8075 12.486C58.8075 11.59 58.6068 10.9133 58.2055 10.456C57.8041 9.98933 57.2721 9.756 56.6095 9.756C55.9468 9.756 55.4148 9.98933 55.0135 10.456C54.6215 10.9133 54.4255 11.59 54.4255 12.486C54.4255 13.3727 54.6215 14.0493 55.0135 14.516C55.4148 14.9733 55.9468 15.202 56.6095 15.202Z" fill="#51BA74"/>
<defs>
<clipPath id="clip0_25_2019">
<rect width="14" height="10" fill="white" transform="translate(67 6)"/>
</clipPath>
</defs>
</svg>
