<svg width="65" height="21" viewBox="0 0 65 21" fill="none" xmlns="http://www.w3.org/2000/svg">
<path d="M27.232 16V6.13H33.392V7.082H28.394V10.54H33.084V11.492H28.394V16H27.232ZM34.9673 16V8.972H36.1013V16H34.9673ZM34.8273 7.376V6.102H36.2273V7.376H34.8273ZM38.3033 16V5.696H39.4373V16H38.3033ZM44.1312 16.126C43.4405 16.126 42.9132 15.93 42.5492 15.538C42.1852 15.1367 42.0032 14.5347 42.0032 13.732V9.854H40.6312V8.972H42.0032V7.054L43.1372 6.732V8.972H45.1532V9.854H43.1372V13.606C43.1372 14.166 43.2305 14.5673 43.4172 14.81C43.6132 15.0433 43.9025 15.16 44.2852 15.16C44.4625 15.16 44.6212 15.146 44.7612 15.118C44.9012 15.0807 45.0272 15.0387 45.1392 14.992V15.944C45.0085 16 44.8499 16.042 44.6632 16.07C44.4859 16.1073 44.3085 16.126 44.1312 16.126ZM49.5874 16.126C48.486 16.126 47.618 15.8087 46.9834 15.174C46.3487 14.53 46.0314 13.6387 46.0314 12.5C46.0314 11.7627 46.1714 11.1233 46.4514 10.582C46.7314 10.0313 47.1234 9.60667 47.6274 9.308C48.1314 9 48.71 8.846 49.3634 8.846C50.0074 8.846 50.5487 8.98133 50.9874 9.252C51.426 9.52267 51.762 9.91 51.9954 10.414C52.2287 10.9087 52.3454 11.4967 52.3454 12.178V12.598H46.8994V11.884H51.6034L51.3654 12.066C51.3654 11.3193 51.1974 10.736 50.8614 10.316C50.5254 9.896 50.026 9.686 49.3634 9.686C48.6634 9.686 48.1174 9.93333 47.7254 10.428C47.3334 10.9133 47.1374 11.5713 47.1374 12.402V12.528C47.1374 13.4053 47.352 14.0727 47.7814 14.53C48.22 14.978 48.8314 15.202 49.6154 15.202C50.0354 15.202 50.4274 15.1413 50.7914 15.02C51.1647 14.8893 51.5194 14.6793 51.8554 14.39L52.2474 15.188C51.9394 15.4867 51.5474 15.72 51.0714 15.888C50.6047 16.0467 50.11 16.126 49.5874 16.126ZM54.0526 16V10.666C54.0526 10.386 54.0433 10.1013 54.0246 9.812C54.0153 9.52267 53.9966 9.24267 53.9686 8.972H55.0606L55.2006 10.68L55.0046 10.694C55.0979 10.274 55.2613 9.92867 55.4946 9.658C55.7279 9.38733 56.0033 9.18667 56.3206 9.056C56.6379 8.916 56.9693 8.846 57.3146 8.846C57.4546 8.846 57.5759 8.85067 57.6786 8.86C57.7906 8.86933 57.8933 8.89267 57.9866 8.93L57.9726 9.938C57.8326 9.89133 57.7019 9.86333 57.5806 9.854C57.4686 9.83533 57.3379 9.826 57.1886 9.826C56.7779 9.826 56.4186 9.924 56.1106 10.12C55.8119 10.316 55.5833 10.568 55.4246 10.876C55.2753 11.184 55.2006 11.5107 55.2006 11.856V16H54.0526ZM61.4362 16.126C60.8762 16.126 60.3535 16.0513 59.8682 15.902C59.3829 15.7433 58.9815 15.524 58.6642 15.244L59.0562 14.446C59.4015 14.7167 59.7749 14.9173 60.1762 15.048C60.5869 15.1787 61.0115 15.244 61.4502 15.244C62.0102 15.244 62.4302 15.146 62.7102 14.95C62.9995 14.7447 63.1442 14.4647 63.1442 14.11C63.1442 13.8393 63.0509 13.6247 62.8642 13.466C62.6869 13.298 62.3929 13.1673 61.9822 13.074L60.6802 12.808C60.0829 12.6773 59.6349 12.458 59.3362 12.15C59.0375 11.8327 58.8882 11.4313 58.8882 10.946C58.8882 10.5353 58.9955 10.176 59.2102 9.868C59.4249 9.55067 59.7375 9.30333 60.1482 9.126C60.5589 8.93933 61.0395 8.846 61.5902 8.846C62.1035 8.846 62.5749 8.92533 63.0042 9.084C63.4429 9.23333 63.8069 9.45267 64.0962 9.742L63.6902 10.526C63.4102 10.2553 63.0882 10.0547 62.7242 9.924C62.3695 9.784 62.0009 9.714 61.6182 9.714C61.0675 9.714 60.6522 9.826 60.3722 10.05C60.1015 10.2647 59.9662 10.5493 59.9662 10.904C59.9662 11.1747 60.0502 11.3987 60.2182 11.576C60.3955 11.744 60.6662 11.87 61.0302 11.954L62.3322 12.22C62.9669 12.36 63.4382 12.5793 63.7462 12.878C64.0635 13.1673 64.2222 13.5593 64.2222 14.054C64.2222 14.474 64.1055 14.8427 63.8722 15.16C63.6389 15.468 63.3122 15.706 62.8922 15.874C62.4815 16.042 61.9962 16.126 61.4362 16.126Z" fill="#60708E"/>
<path d="M3.75 17.75V8.75M14.25 4.25V7.25V4.25ZM14.25 17.75V10.25V17.75ZM9 4.25V13.25V4.25ZM9 17.75V16.25V17.75ZM3.75 4.25V5.75V4.25Z" stroke="#60708E" stroke-width="1.2" stroke-linecap="round"/>
<path d="M12.75 8.75C12.75 9.57843 13.4216 10.25 14.25 10.25C15.0784 10.25 15.75 9.57843 15.75 8.75C15.75 7.92157 15.0784 7.25 14.25 7.25C13.4216 7.25 12.75 7.92157 12.75 8.75Z" stroke="#60708E" stroke-width="1.2" stroke-linecap="round"/>
<path d="M7.5 14.75C7.5 15.5784 8.17157 16.25 9 16.25C9.82843 16.25 10.5 15.5784 10.5 14.75C10.5 13.9216 9.82843 13.25 9 13.25C8.17157 13.25 7.5 13.9216 7.5 14.75Z" stroke="#60708E" stroke-width="1.2" stroke-linecap="round"/>
<path d="M2.25 7.25C2.25 8.07843 2.92157 8.75 3.75 8.75C4.57843 8.75 5.25 8.07843 5.25 7.25C5.25 6.42157 4.57843 5.75 3.75 5.75C2.92157 5.75 2.25 6.42157 2.25 7.25Z" stroke="#60708E" stroke-width="1.2" stroke-linecap="round"/>
</svg>
