<svg width="105" height="21" viewBox="0 0 105 21" fill="none" xmlns="http://www.w3.org/2000/svg">
<path d="M1.16459 16V5.696H2.29859V16H1.16459ZM7.62253 16.126C6.5212 16.126 5.6532 15.8087 5.01853 15.174C4.38386 14.53 4.06653 13.6387 4.06653 12.5C4.06653 11.7627 4.20653 11.1233 4.48653 10.582C4.76653 10.0313 5.15853 9.60667 5.66253 9.308C6.16653 9 6.7452 8.846 7.39853 8.846C8.04253 8.846 8.58386 8.98133 9.02253 9.252C9.4612 9.52267 9.7972 9.91 10.0305 10.414C10.2639 10.9087 10.3805 11.4967 10.3805 12.178V12.598H4.93453V11.884H9.63853L9.40053 12.066C9.40053 11.3193 9.23253 10.736 8.89653 10.316C8.56053 9.896 8.0612 9.686 7.39853 9.686C6.69853 9.686 6.15253 9.93333 5.76053 10.428C5.36853 10.9133 5.17253 11.5713 5.17253 12.402V12.528C5.17253 13.4053 5.3872 14.0727 5.81653 14.53C6.2552 14.978 6.86653 15.202 7.65053 15.202C8.07053 15.202 8.46253 15.1413 8.82653 15.02C9.19986 14.8893 9.55453 14.6793 9.89053 14.39L10.2825 15.188C9.97453 15.4867 9.58253 15.72 9.10653 15.888C8.63986 16.0467 8.1452 16.126 7.62253 16.126ZM14.7898 16.126C14.1644 16.126 13.6184 15.9813 13.1518 15.692C12.6851 15.3933 12.3211 14.9733 12.0598 14.432C11.8078 13.8907 11.6818 13.242 11.6818 12.486C11.6818 11.7207 11.8078 11.0673 12.0598 10.526C12.3211 9.98467 12.6851 9.56933 13.1518 9.28C13.6184 8.99067 14.1644 8.846 14.7898 8.846C15.4244 8.846 15.9704 9.00933 16.4278 9.336C16.8944 9.65333 17.2024 10.0873 17.3518 10.638H17.1838L17.3378 8.972H18.4298C18.4018 9.24267 18.3738 9.518 18.3458 9.798C18.3271 10.0687 18.3178 10.3347 18.3178 10.596V16H17.1838V14.348H17.3378C17.1884 14.8987 16.8804 15.3327 16.4138 15.65C15.9471 15.9673 15.4058 16.126 14.7898 16.126ZM15.0138 15.202C15.6858 15.202 16.2178 14.9733 16.6098 14.516C17.0018 14.0493 17.1978 13.3727 17.1978 12.486C17.1978 11.59 17.0018 10.9133 16.6098 10.456C16.2178 9.98933 15.6858 9.756 15.0138 9.756C14.3511 9.756 13.8191 9.98933 13.4178 10.456C13.0258 10.9133 12.8298 11.59 12.8298 12.486C12.8298 13.3727 13.0258 14.0493 13.4178 14.516C13.8191 14.9733 14.3511 15.202 15.0138 15.202ZM22.5139 16L19.5039 8.972H20.7359L23.2559 15.16H22.8779L25.4259 8.972H26.6019L23.5919 16H22.5139ZM30.9057 16.126C29.8044 16.126 28.9364 15.8087 28.3017 15.174C27.6671 14.53 27.3497 13.6387 27.3497 12.5C27.3497 11.7627 27.4897 11.1233 27.7697 10.582C28.0497 10.0313 28.4417 9.60667 28.9457 9.308C29.4497 9 30.0284 8.846 30.6817 8.846C31.3257 8.846 31.8671 8.98133 32.3057 9.252C32.7444 9.52267 33.0804 9.91 33.3137 10.414C33.5471 10.9087 33.6637 11.4967 33.6637 12.178V12.598H28.2177V11.884H32.9217L32.6837 12.066C32.6837 11.3193 32.5157 10.736 32.1797 10.316C31.8437 9.896 31.3444 9.686 30.6817 9.686C29.9817 9.686 29.4357 9.93333 29.0437 10.428C28.6517 10.9133 28.4557 11.5713 28.4557 12.402V12.528C28.4557 13.4053 28.6704 14.0727 29.0997 14.53C29.5384 14.978 30.1497 15.202 30.9337 15.202C31.3537 15.202 31.7457 15.1413 32.1097 15.02C32.4831 14.8893 32.8377 14.6793 33.1737 14.39L33.5657 15.188C33.2577 15.4867 32.8657 15.72 32.3897 15.888C31.9231 16.0467 31.4284 16.126 30.9057 16.126ZM41.7234 16.126C41.098 16.126 40.552 15.9813 40.0854 15.692C39.6187 15.3933 39.2547 14.9733 38.9934 14.432C38.7414 13.8907 38.6154 13.242 38.6154 12.486C38.6154 11.7207 38.7414 11.0673 38.9934 10.526C39.2547 9.98467 39.6187 9.56933 40.0854 9.28C40.552 8.99067 41.098 8.846 41.7234 8.846C42.358 8.846 42.904 9.00933 43.3614 9.336C43.828 9.65333 44.136 10.0873 44.2854 10.638H44.1174L44.2714 8.972H45.3634C45.3354 9.24267 45.3074 9.518 45.2794 9.798C45.2607 10.0687 45.2514 10.3347 45.2514 10.596V16H44.1174V14.348H44.2714C44.122 14.8987 43.814 15.3327 43.3474 15.65C42.8807 15.9673 42.3394 16.126 41.7234 16.126ZM41.9474 15.202C42.6194 15.202 43.1514 14.9733 43.5434 14.516C43.9354 14.0493 44.1314 13.3727 44.1314 12.486C44.1314 11.59 43.9354 10.9133 43.5434 10.456C43.1514 9.98933 42.6194 9.756 41.9474 9.756C41.2847 9.756 40.7527 9.98933 40.3514 10.456C39.9594 10.9133 39.7634 11.59 39.7634 12.486C39.7634 13.3727 39.9594 14.0493 40.3514 14.516C40.7527 14.9733 41.2847 15.202 41.9474 15.202ZM51.0663 16V10.666C51.0663 10.386 51.0569 10.1013 51.0383 9.812C51.0289 9.52267 51.0103 9.24267 50.9823 8.972H52.0743L52.2143 10.68L52.0183 10.694C52.1116 10.274 52.2749 9.92867 52.5083 9.658C52.7416 9.38733 53.0169 9.18667 53.3343 9.056C53.6516 8.916 53.9829 8.846 54.3283 8.846C54.4683 8.846 54.5896 8.85067 54.6923 8.86C54.8043 8.86933 54.9069 8.89267 55.0003 8.93L54.9863 9.938C54.8463 9.89133 54.7156 9.86333 54.5943 9.854C54.4823 9.83533 54.3516 9.826 54.2023 9.826C53.7916 9.826 53.4323 9.924 53.1243 10.12C52.8256 10.316 52.5969 10.568 52.4383 10.876C52.2889 11.184 52.2143 11.5107 52.2143 11.856V16H51.0663ZM59.2202 16.126C58.1189 16.126 57.2509 15.8087 56.6162 15.174C55.9815 14.53 55.6642 13.6387 55.6642 12.5C55.6642 11.7627 55.8042 11.1233 56.0842 10.582C56.3642 10.0313 56.7562 9.60667 57.2602 9.308C57.7642 9 58.3429 8.846 58.9962 8.846C59.6402 8.846 60.1815 8.98133 60.6202 9.252C61.0589 9.52267 61.3949 9.91 61.6282 10.414C61.8615 10.9087 61.9782 11.4967 61.9782 12.178V12.598H56.5322V11.884H61.2362L60.9982 12.066C60.9982 11.3193 60.8302 10.736 60.4942 10.316C60.1582 9.896 59.6589 9.686 58.9962 9.686C58.2962 9.686 57.7502 9.93333 57.3582 10.428C56.9662 10.9133 56.7702 11.5713 56.7702 12.402V12.528C56.7702 13.4053 56.9849 14.0727 57.4142 14.53C57.8529 14.978 58.4642 15.202 59.2482 15.202C59.6682 15.202 60.0602 15.1413 60.4242 15.02C60.7975 14.8893 61.1522 14.6793 61.4882 14.39L61.8802 15.188C61.5722 15.4867 61.1802 15.72 60.7042 15.888C60.2375 16.0467 59.7429 16.126 59.2202 16.126ZM65.7034 16L62.6934 8.972H63.9254L66.4454 15.16H66.0674L68.6154 8.972H69.7914L66.7814 16H65.7034ZM71.0689 16V8.972H72.2029V16H71.0689ZM70.9289 7.376V6.102H72.3289V7.376H70.9289ZM77.5268 16.126C76.4255 16.126 75.5575 15.8087 74.9228 15.174C74.2882 14.53 73.9708 13.6387 73.9708 12.5C73.9708 11.7627 74.1108 11.1233 74.3908 10.582C74.6708 10.0313 75.0628 9.60667 75.5668 9.308C76.0708 9 76.6495 8.846 77.3028 8.846C77.9468 8.846 78.4882 8.98133 78.9268 9.252C79.3655 9.52267 79.7015 9.91 79.9348 10.414C80.1682 10.9087 80.2848 11.4967 80.2848 12.178V12.598H74.8388V11.884H79.5428L79.3048 12.066C79.3048 11.3193 79.1368 10.736 78.8008 10.316C78.4648 9.896 77.9655 9.686 77.3028 9.686C76.6028 9.686 76.0568 9.93333 75.6648 10.428C75.2728 10.9133 75.0768 11.5713 75.0768 12.402V12.528C75.0768 13.4053 75.2915 14.0727 75.7208 14.53C76.1595 14.978 76.7708 15.202 77.5548 15.202C77.9748 15.202 78.3668 15.1413 78.7308 15.02C79.1042 14.8893 79.4588 14.6793 79.7948 14.39L80.1868 15.188C79.8788 15.4867 79.4868 15.72 79.0108 15.888C78.5442 16.0467 78.0495 16.126 77.5268 16.126ZM83.814 16L81.21 8.972H82.414L84.584 15.16H84.22L86.46 8.972H87.44L89.638 15.16H89.288L91.472 8.972H92.62L90.002 16H88.91L86.642 9.714H87.202L84.92 16H83.814Z" fill="#193364"/>
<g clip-path="url(#clip0_16_10)">
<path d="M100 16L104 12L100 8" stroke="#193364" stroke-width="1.5" stroke-linecap="round" stroke-linejoin="round"/>
</g>
<defs>
<clipPath id="clip0_16_10">
<rect width="6" height="10" fill="white" transform="translate(99 7)"/>
</clipPath>
</defs>
</svg>
