<svg width="30" height="30" viewBox="0 0 30 30" fill="none" xmlns="http://www.w3.org/2000/svg">
<rect x="0.5" y="0.5" width="29" height="29" rx="14.5" stroke="#DBE3F5" stroke-opacity="0.3"/>
<g clip-path="url(#clip0_47_2967)">
<path d="M20.25 13.8333C20.25 17.9166 15 21.4166 15 21.4166C15 21.4166 9.75 17.9166 9.75 13.8333C9.75 12.4409 10.3031 11.1056 11.2877 10.121C12.2723 9.13644 13.6076 8.58331 15 8.58331C16.3924 8.58331 17.7277 9.13644 18.7123 10.121C19.6969 11.1056 20.25 12.4409 20.25 13.8333Z" stroke="white" stroke-width="1.2" stroke-linecap="round" stroke-linejoin="round"/>
<path d="M15 15.5833C15.9665 15.5833 16.75 14.7998 16.75 13.8333C16.75 12.8668 15.9665 12.0833 15 12.0833C14.0335 12.0833 13.25 12.8668 13.25 13.8333C13.25 14.7998 14.0335 15.5833 15 15.5833Z" stroke="white" stroke-width="1.2" stroke-linecap="round" stroke-linejoin="round"/>
</g>
<defs>
<clipPath id="clip0_47_2967">
<rect width="14" height="14" fill="white" transform="translate(8 8)"/>
</clipPath>
</defs>
</svg>
