<svg width="30" height="30" viewBox="0 0 30 30" fill="none" xmlns="http://www.w3.org/2000/svg">
<rect x="0.5" y="0.5" width="29" height="29" rx="14.5" stroke="#DBE3F5" stroke-opacity="0.3"/>
<g clip-path="url(#clip0_47_2979)">
<path d="M15.7792 10.9167C16.3489 11.0279 16.8726 11.3065 17.283 11.717C17.6935 12.1275 17.9722 12.6511 18.0833 13.2209L15.7792 10.9167ZM15.7792 8.58337C16.9629 8.71488 18.0668 9.24498 18.9095 10.0866C19.7522 10.9283 20.2837 12.0315 20.4167 13.215L15.7792 8.58337ZM19.8333 17.87V19.62C19.834 19.7825 19.8007 19.9433 19.7356 20.0922C19.6705 20.241 19.5751 20.3746 19.4554 20.4845C19.3357 20.5943 19.1943 20.6779 19.0404 20.73C18.8865 20.782 18.7235 20.8013 18.5617 20.7867C16.7667 20.5917 15.0424 19.9783 13.5275 18.9959C12.1181 18.1003 10.9231 16.9053 10.0275 15.4959C9.04166 13.9741 8.42814 12.2415 8.23667 10.4384C8.22209 10.2771 8.24126 10.1145 8.29296 9.96099C8.34466 9.80749 8.42775 9.66644 8.53695 9.54682C8.64615 9.4272 8.77905 9.33162 8.92721 9.26618C9.07537 9.20074 9.23553 9.16686 9.3975 9.16671H11.1475C11.4306 9.16392 11.705 9.26417 11.9197 9.44877C12.1343 9.63337 12.2745 9.88972 12.3142 10.17C12.388 10.7301 12.525 11.28 12.7225 11.8092C12.801 12.018 12.818 12.2449 12.7714 12.4631C12.7249 12.6812 12.6168 12.8814 12.46 13.04L11.7192 13.7809C12.5496 15.2413 13.7588 16.4505 15.2192 17.2809L15.96 16.54C16.1186 16.3832 16.3188 16.2751 16.537 16.2286C16.7551 16.1821 16.982 16.1991 17.1908 16.2775C17.7201 16.475 18.27 16.612 18.83 16.6859C19.1134 16.7258 19.3722 16.8686 19.5571 17.0869C19.7421 17.3052 19.8404 17.584 19.8333 17.87Z" stroke="white" stroke-width="1.2" stroke-linecap="round" stroke-linejoin="round"/>
</g>
<defs>
<clipPath id="clip0_47_2979">
<rect width="14" height="14" fill="white" transform="translate(7 8)"/>
</clipPath>
</defs>
</svg>
