<svg width="44" height="44" viewBox="0 0 44 44" fill="none" xmlns="http://www.w3.org/2000/svg">
<rect x="0.5" y="0.5" width="43" height="43" rx="21.5" stroke="#E8EFF4"/>
<path d="M29.3667 15.8417C28.9411 15.4159 28.4357 15.0781 27.8795 14.8476C27.3233 14.6172 26.7271 14.4985 26.1251 14.4985C25.523 14.4985 24.9268 14.6172 24.3706 14.8476C23.8144 15.0781 23.309 15.4159 22.8834 15.8417L22.0001 16.7251L21.1167 15.8417C20.257 14.982 19.0909 14.499 17.8751 14.499C16.6592 14.499 15.4931 14.982 14.6334 15.8417C13.7736 16.7015 13.2906 17.8675 13.2906 19.0834C13.2906 20.2992 13.7736 21.4653 14.6334 22.3251L15.5167 23.2084L22.0001 29.6917L28.4834 23.2084L29.3667 22.3251C29.7926 21.8994 30.1304 21.3941 30.3608 20.8379C30.5913 20.2816 30.7099 19.6855 30.7099 19.0834C30.7099 18.4813 30.5913 17.8851 30.3608 17.3289C30.1304 16.7727 29.7926 16.2674 29.3667 15.8417V15.8417Z" stroke="#60708E" stroke-width="1.2" stroke-linecap="round" stroke-linejoin="round"/>
</svg>
