<svg width="165" height="27" viewBox="0 0 165 27" fill="none" xmlns="http://www.w3.org/2000/svg">
<path d="M2.01738 20V8.72H6.60938C7.79338 8.72 8.70538 9.008 9.34538 9.584C9.98538 10.1493 10.3054 10.9387 10.3054 11.952C10.3054 12.944 9.98538 13.7333 9.34538 14.32C8.70538 14.896 7.79338 15.184 6.60938 15.184H3.34538V20H2.01738ZM3.34538 14.08H6.48138C7.30271 14.08 7.92138 13.8933 8.33738 13.52C8.76404 13.1467 8.97738 12.624 8.97738 11.952C8.97738 11.2693 8.76404 10.7413 8.33738 10.368C7.92138 9.99467 7.30271 9.808 6.48138 9.808H3.34538V14.08ZM12.107 20V13.904C12.107 13.584 12.0963 13.2587 12.075 12.928C12.0643 12.5973 12.043 12.2773 12.011 11.968H13.259L13.419 13.92L13.195 13.936C13.3017 13.456 13.4883 13.0613 13.755 12.752C14.0217 12.4427 14.3363 12.2133 14.699 12.064C15.0617 11.904 15.4403 11.824 15.835 11.824C15.995 11.824 16.1337 11.8293 16.251 11.84C16.379 11.8507 16.4963 11.8773 16.603 11.92L16.587 13.072C16.427 13.0187 16.2777 12.9867 16.139 12.976C16.011 12.9547 15.8617 12.944 15.691 12.944C15.2217 12.944 14.811 13.056 14.459 13.28C14.1177 13.504 13.8563 13.792 13.675 14.144C13.5043 14.496 13.419 14.8693 13.419 15.264V20H12.107ZM21.1538 20.144C20.3858 20.144 19.7138 19.9787 19.1378 19.648C18.5724 19.3067 18.1351 18.8267 17.8258 18.208C17.5164 17.5787 17.3618 16.8373 17.3618 15.984C17.3618 15.12 17.5164 14.3787 17.8258 13.76C18.1351 13.1413 18.5724 12.6667 19.1378 12.336C19.7138 11.9947 20.3858 11.824 21.1538 11.824C21.9324 11.824 22.6044 11.9947 23.1698 12.336C23.7458 12.6667 24.1884 13.1413 24.4978 13.76C24.8178 14.3787 24.9778 15.12 24.9778 15.984C24.9778 16.8373 24.8178 17.5787 24.4978 18.208C24.1884 18.8267 23.7458 19.3067 23.1698 19.648C22.6044 19.9787 21.9324 20.144 21.1538 20.144ZM21.1538 19.088C21.9218 19.088 22.5298 18.8267 22.9778 18.304C23.4258 17.7707 23.6498 16.9973 23.6498 15.984C23.6498 14.96 23.4204 14.1867 22.9618 13.664C22.5138 13.1307 21.9111 12.864 21.1538 12.864C20.3964 12.864 19.7938 13.1307 19.3458 13.664C18.8978 14.1867 18.6738 14.96 18.6738 15.984C18.6738 16.9973 18.8978 17.7707 19.3458 18.304C19.7938 18.8267 20.3964 19.088 21.1538 19.088ZM26.9984 20V13.824C26.9984 13.5253 26.9824 13.2213 26.9504 12.912C26.929 12.592 26.9024 12.2773 26.8704 11.968H28.1184L28.2784 13.728H28.0864C28.2997 13.12 28.6357 12.6507 29.0944 12.32C29.5637 11.9893 30.129 11.824 30.7904 11.824C31.4624 11.824 32.0064 11.984 32.4224 12.304C32.849 12.624 33.137 13.12 33.2864 13.792H33.0464C33.249 13.184 33.6064 12.704 34.1184 12.352C34.6304 12 35.2277 11.824 35.9104 11.824C36.7957 11.824 37.4624 12.08 37.9104 12.592C38.3584 13.0933 38.5824 13.888 38.5824 14.976V20H37.2864V15.056C37.2864 14.2987 37.153 13.7493 36.8864 13.408C36.6197 13.056 36.193 12.88 35.6064 12.88C34.9344 12.88 34.401 13.1147 34.0064 13.584C33.6224 14.0427 33.4304 14.6613 33.4304 15.44V20H32.1344V15.056C32.1344 14.2987 32.001 13.7493 31.7344 13.408C31.4677 13.056 31.041 12.88 30.4544 12.88C29.7824 12.88 29.2544 13.1147 28.8704 13.584C28.4864 14.0427 28.2944 14.6613 28.2944 15.44V20H26.9984ZM44.3413 20.144C43.5733 20.144 42.9013 19.9787 42.3253 19.648C41.7599 19.3067 41.3226 18.8267 41.0133 18.208C40.7039 17.5787 40.5493 16.8373 40.5493 15.984C40.5493 15.12 40.7039 14.3787 41.0133 13.76C41.3226 13.1413 41.7599 12.6667 42.3253 12.336C42.9013 11.9947 43.5733 11.824 44.3413 11.824C45.1199 11.824 45.7919 11.9947 46.3573 12.336C46.9333 12.6667 47.3759 13.1413 47.6853 13.76C48.0053 14.3787 48.1653 15.12 48.1653 15.984C48.1653 16.8373 48.0053 17.5787 47.6853 18.208C47.3759 18.8267 46.9333 19.3067 46.3573 19.648C45.7919 19.9787 45.1199 20.144 44.3413 20.144ZM44.3413 19.088C45.1093 19.088 45.7173 18.8267 46.1653 18.304C46.6133 17.7707 46.8373 16.9973 46.8373 15.984C46.8373 14.96 46.6079 14.1867 46.1493 13.664C45.7013 13.1307 45.0986 12.864 44.3413 12.864C43.5839 12.864 42.9813 13.1307 42.5333 13.664C42.0853 14.1867 41.8613 14.96 41.8613 15.984C41.8613 16.9973 42.0853 17.7707 42.5333 18.304C42.9813 18.8267 43.5839 19.088 44.3413 19.088ZM53.5619 20.144C52.7725 20.144 52.0845 19.9733 51.4979 19.632C50.9219 19.2907 50.4739 18.8053 50.1539 18.176C49.8445 17.5467 49.6899 16.8 49.6899 15.936C49.6899 15.0613 49.8499 14.32 50.1699 13.712C50.4899 13.0933 50.9379 12.624 51.5139 12.304C52.1005 11.984 52.7832 11.824 53.5619 11.824C54.0739 11.824 54.5699 11.9147 55.0499 12.096C55.5405 12.2773 55.9459 12.5333 56.2659 12.864L55.8019 13.792C55.4819 13.4827 55.1299 13.2533 54.7459 13.104C54.3725 12.9547 54.0045 12.88 53.6419 12.88C52.8099 12.88 52.1645 13.1413 51.7059 13.664C51.2472 14.1867 51.0179 14.9493 51.0179 15.952C51.0179 16.944 51.2472 17.712 51.7059 18.256C52.1645 18.8 52.8099 19.072 53.6419 19.072C53.9939 19.072 54.3565 19.0027 54.7299 18.864C55.1139 18.7253 55.4712 18.496 55.8019 18.176L56.2659 19.088C55.9352 19.4293 55.5245 19.6907 55.0339 19.872C54.5432 20.0533 54.0525 20.144 53.5619 20.144ZM61.2475 20.144C60.4795 20.144 59.8075 19.9787 59.2315 19.648C58.6662 19.3067 58.2288 18.8267 57.9195 18.208C57.6102 17.5787 57.4555 16.8373 57.4555 15.984C57.4555 15.12 57.6102 14.3787 57.9195 13.76C58.2288 13.1413 58.6662 12.6667 59.2315 12.336C59.8075 11.9947 60.4795 11.824 61.2475 11.824C62.0262 11.824 62.6982 11.9947 63.2635 12.336C63.8395 12.6667 64.2822 13.1413 64.5915 13.76C64.9115 14.3787 65.0715 15.12 65.0715 15.984C65.0715 16.8373 64.9115 17.5787 64.5915 18.208C64.2822 18.8267 63.8395 19.3067 63.2635 19.648C62.6982 19.9787 62.0262 20.144 61.2475 20.144ZM61.2475 19.088C62.0155 19.088 62.6235 18.8267 63.0715 18.304C63.5195 17.7707 63.7435 16.9973 63.7435 15.984C63.7435 14.96 63.5142 14.1867 63.0555 13.664C62.6075 13.1307 62.0048 12.864 61.2475 12.864C60.4902 12.864 59.8875 13.1307 59.4395 13.664C58.9915 14.1867 58.7675 14.96 58.7675 15.984C58.7675 16.9973 58.9915 17.7707 59.4395 18.304C59.8875 18.8267 60.4902 19.088 61.2475 19.088ZM70.1321 20.144C69.4281 20.144 68.8095 19.9787 68.2761 19.648C67.7428 19.3067 67.3268 18.8267 67.0281 18.208C66.7401 17.5893 66.5961 16.848 66.5961 15.984C66.5961 15.1093 66.7401 14.3627 67.0281 13.744C67.3268 13.1253 67.7428 12.6507 68.2761 12.32C68.8095 11.9893 69.4281 11.824 70.1321 11.824C70.8575 11.824 71.4815 12.0053 72.0041 12.368C72.5375 12.7307 72.8948 13.2213 73.0761 13.84H72.8841V8.224H74.1801V20H72.9001V18.08H73.0761C72.9055 18.72 72.5535 19.2267 72.0201 19.6C71.4868 19.9627 70.8575 20.144 70.1321 20.144ZM70.4041 19.088C71.1615 19.088 71.7695 18.8267 72.2281 18.304C72.6868 17.7707 72.9161 16.9973 72.9161 15.984C72.9161 14.96 72.6868 14.1867 72.2281 13.664C71.7695 13.1307 71.1615 12.864 70.4041 12.864C69.6468 12.864 69.0388 13.1307 68.5801 13.664C68.1321 14.1867 67.9081 14.96 67.9081 15.984C67.9081 16.9973 68.1321 17.7707 68.5801 18.304C69.0388 18.8267 69.6468 19.088 70.4041 19.088ZM80.2539 20.144C78.9952 20.144 78.0032 19.7813 77.2779 19.056C76.5525 18.32 76.1899 17.3013 76.1899 16C76.1899 15.1573 76.3499 14.4267 76.6699 13.808C76.9899 13.1787 77.4379 12.6933 78.0139 12.352C78.5899 12 79.2512 11.824 79.9979 11.824C80.7339 11.824 81.3525 11.9787 81.8539 12.288C82.3552 12.5973 82.7392 13.04 83.0059 13.616C83.2725 14.1813 83.4059 14.8533 83.4059 15.632V16.112H77.1819V15.296H82.5579L82.2859 15.504C82.2859 14.6507 82.0939 13.984 81.7099 13.504C81.3259 13.024 80.7552 12.784 79.9979 12.784C79.1979 12.784 78.5739 13.0667 78.1259 13.632C77.6779 14.1867 77.4539 14.9387 77.4539 15.888V16.032C77.4539 17.0347 77.6992 17.7973 78.1899 18.32C78.6912 18.832 79.3899 19.088 80.2859 19.088C80.7659 19.088 81.2139 19.0187 81.6299 18.88C82.0565 18.7307 82.4619 18.4907 82.8459 18.16L83.2939 19.072C82.9419 19.4133 82.4939 19.68 81.9499 19.872C81.4165 20.0533 80.8512 20.144 80.2539 20.144ZM92.6169 20.144C91.9022 20.144 91.2782 19.9787 90.7449 19.648C90.2115 19.3067 89.7955 18.8267 89.4969 18.208C89.2089 17.5893 89.0649 16.848 89.0649 15.984C89.0649 15.1093 89.2089 14.3627 89.4969 13.744C89.7955 13.1253 90.2115 12.6507 90.7449 12.32C91.2782 11.9893 91.9022 11.824 92.6169 11.824C93.3422 11.824 93.9662 12.0107 94.4889 12.384C95.0222 12.7467 95.3742 13.2427 95.5449 13.872H95.3529L95.5289 11.968H96.7769C96.7449 12.2773 96.7129 12.592 96.6809 12.912C96.6595 13.2213 96.6489 13.5253 96.6489 13.824V20H95.3529V18.112H95.5289C95.3582 18.7413 95.0062 19.2373 94.4729 19.6C93.9395 19.9627 93.3209 20.144 92.6169 20.144ZM92.8729 19.088C93.6409 19.088 94.2489 18.8267 94.6969 18.304C95.1449 17.7707 95.3689 16.9973 95.3689 15.984C95.3689 14.96 95.1449 14.1867 94.6969 13.664C94.2489 13.1307 93.6409 12.864 92.8729 12.864C92.1155 12.864 91.5075 13.1307 91.0489 13.664C90.6009 14.1867 90.3769 14.96 90.3769 15.984C90.3769 16.9973 90.6009 17.7707 91.0489 18.304C91.5075 18.8267 92.1155 19.088 92.8729 19.088ZM99.1546 23.456V13.824C99.1546 13.5253 99.1386 13.2213 99.1066 12.912C99.0853 12.592 99.0586 12.2773 99.0266 11.968H100.275L100.451 13.872H100.259C100.429 13.2427 100.776 12.7467 101.299 12.384C101.821 12.0107 102.445 11.824 103.171 11.824C103.896 11.824 104.52 11.9893 105.043 12.32C105.576 12.6507 105.992 13.1253 106.291 13.744C106.589 14.3627 106.739 15.1093 106.739 15.984C106.739 16.848 106.589 17.5893 106.291 18.208C106.003 18.8267 105.592 19.3067 105.059 19.648C104.525 19.9787 103.896 20.144 103.171 20.144C102.456 20.144 101.837 19.9627 101.315 19.6C100.792 19.2373 100.445 18.7413 100.275 18.112H100.451V23.456H99.1546ZM102.915 19.088C103.683 19.088 104.291 18.8267 104.739 18.304C105.197 17.7707 105.427 16.9973 105.427 15.984C105.427 14.96 105.197 14.1867 104.739 13.664C104.291 13.1307 103.683 12.864 102.915 12.864C102.157 12.864 101.549 13.1307 101.091 13.664C100.643 14.1867 100.419 14.96 100.419 15.984C100.419 16.9973 100.643 17.7707 101.091 18.304C101.549 18.8267 102.157 19.088 102.915 19.088ZM108.748 23.456V13.824C108.748 13.5253 108.732 13.2213 108.7 12.912C108.679 12.592 108.652 12.2773 108.62 11.968H109.868L110.044 13.872H109.852C110.023 13.2427 110.37 12.7467 110.892 12.384C111.415 12.0107 112.039 11.824 112.764 11.824C113.49 11.824 114.114 11.9893 114.636 12.32C115.17 12.6507 115.586 13.1253 115.884 13.744C116.183 14.3627 116.332 15.1093 116.332 15.984C116.332 16.848 116.183 17.5893 115.884 18.208C115.596 18.8267 115.186 19.3067 114.652 19.648C114.119 19.9787 113.49 20.144 112.764 20.144C112.05 20.144 111.431 19.9627 110.908 19.6C110.386 19.2373 110.039 18.7413 109.868 18.112H110.044V23.456H108.748ZM112.508 19.088C113.276 19.088 113.884 18.8267 114.332 18.304C114.791 17.7707 115.02 16.9973 115.02 15.984C115.02 14.96 114.791 14.1867 114.332 13.664C113.884 13.1307 113.276 12.864 112.508 12.864C111.751 12.864 111.143 13.1307 110.684 13.664C110.236 14.1867 110.012 14.96 110.012 15.984C110.012 16.9973 110.236 17.7707 110.684 18.304C111.143 18.8267 111.751 19.088 112.508 19.088ZM118.342 20V8.224H119.638V20H118.342ZM122.155 20V11.968H123.451V20H122.155ZM121.995 10.144V8.688H123.595V10.144H121.995ZM129.535 20.144C128.276 20.144 127.284 19.7813 126.559 19.056C125.834 18.32 125.471 17.3013 125.471 16C125.471 15.1573 125.631 14.4267 125.951 13.808C126.271 13.1787 126.719 12.6933 127.295 12.352C127.871 12 128.532 11.824 129.279 11.824C130.015 11.824 130.634 11.9787 131.135 12.288C131.636 12.5973 132.02 13.04 132.287 13.616C132.554 14.1813 132.687 14.8533 132.687 15.632V16.112H126.463V15.296H131.839L131.567 15.504C131.567 14.6507 131.375 13.984 130.991 13.504C130.607 13.024 130.036 12.784 129.279 12.784C128.479 12.784 127.855 13.0667 127.407 13.632C126.959 14.1867 126.735 14.9387 126.735 15.888V16.032C126.735 17.0347 126.98 17.7973 127.471 18.32C127.972 18.832 128.671 19.088 129.567 19.088C130.047 19.088 130.495 19.0187 130.911 18.88C131.338 18.7307 131.743 18.4907 132.127 18.16L132.575 19.072C132.223 19.4133 131.775 19.68 131.231 19.872C130.698 20.0533 130.132 20.144 129.535 20.144ZM137.71 20.144C137.006 20.144 136.388 19.9787 135.854 19.648C135.321 19.3067 134.905 18.8267 134.606 18.208C134.318 17.5893 134.174 16.848 134.174 15.984C134.174 15.1093 134.318 14.3627 134.606 13.744C134.905 13.1253 135.321 12.6507 135.854 12.32C136.388 11.9893 137.006 11.824 137.71 11.824C138.436 11.824 139.06 12.0053 139.582 12.368C140.116 12.7307 140.473 13.2213 140.654 13.84H140.462V8.224H141.758V20H140.478V18.08H140.654C140.484 18.72 140.132 19.2267 139.598 19.6C139.065 19.9627 138.436 20.144 137.71 20.144ZM137.982 19.088C138.74 19.088 139.348 18.8267 139.806 18.304C140.265 17.7707 140.494 16.9973 140.494 15.984C140.494 14.96 140.265 14.1867 139.806 13.664C139.348 13.1307 138.74 12.864 137.982 12.864C137.225 12.864 136.617 13.1307 136.158 13.664C135.71 14.1867 135.486 14.96 135.486 15.984C135.486 16.9973 135.71 17.7707 136.158 18.304C136.617 18.8267 137.225 19.088 137.982 19.088Z" fill="#193364"/>
<g clip-path="url(#clip0_1518_3376)">
<path d="M163.333 10L156 17.3333L152.667 14" stroke="#51BA74" stroke-width="1.5" stroke-linecap="round" stroke-linejoin="round"/>
</g>
<defs>
<clipPath id="clip0_1518_3376">
<rect width="14" height="10" fill="white" transform="translate(151 9)"/>
</clipPath>
</defs>
</svg>
