<svg width="68" height="12" viewBox="0 0 68 12" fill="none" xmlns="http://www.w3.org/2000/svg">
<g clip-path="url(#clip0_10_71)">
<path d="M6 1L7.545 4.13L11 4.635L8.5 7.07L9.09 10.51L6 8.885L2.91 10.51L3.5 7.07L1 4.635L4.455 4.13L6 1Z" fill="#F5C102" stroke="#F5C102" stroke-linecap="round" stroke-linejoin="round"/>
</g>
<g clip-path="url(#clip1_10_71)">
<path d="M20 1L21.545 4.13L25 4.635L22.5 7.07L23.09 10.51L20 8.885L16.91 10.51L17.5 7.07L15 4.635L18.455 4.13L20 1Z" fill="#F5C102" stroke="#F5C102" stroke-linecap="round" stroke-linejoin="round"/>
</g>
<g clip-path="url(#clip2_10_71)">
<path d="M34 1L35.545 4.13L39 4.635L36.5 7.07L37.09 10.51L34 8.885L30.91 10.51L31.5 7.07L29 4.635L32.455 4.13L34 1Z" fill="#F5C102" stroke="#F5C102" stroke-linecap="round" stroke-linejoin="round"/>
</g>
<g clip-path="url(#clip3_10_71)">
<path d="M48 1L49.545 4.13L53 4.635L50.5 7.07L51.09 10.51L48 8.885L44.91 10.51L45.5 7.07L43 4.635L46.455 4.13L48 1Z" stroke="#F5C102" stroke-linecap="round" stroke-linejoin="round"/>
</g>
<g clip-path="url(#clip4_10_71)">
<path d="M62 1L63.545 4.13L67 4.635L64.5 7.07L65.09 10.51L62 8.885L58.91 10.51L59.5 7.07L57 4.635L60.455 4.13L62 1Z" stroke="#F5C102" stroke-linecap="round" stroke-linejoin="round"/>
</g>
<defs>
<clipPath id="clip0_10_71">
<rect width="12" height="12" fill="white"/>
</clipPath>
<clipPath id="clip1_10_71">
<rect width="12" height="12" fill="white" transform="translate(14)"/>
</clipPath>
<clipPath id="clip2_10_71">
<rect width="12" height="12" fill="white" transform="translate(28)"/>
</clipPath>
<clipPath id="clip3_10_71">
<rect width="12" height="12" fill="white" transform="translate(42)"/>
</clipPath>
<clipPath id="clip4_10_71">
<rect width="12" height="12" fill="white" transform="translate(56)"/>
</clipPath>
</defs>
</svg>
