<svg width="86" height="24" viewBox="0 0 86 24" fill="none" xmlns="http://www.w3.org/2000/svg">
<path d="M1.84138 18V11.904C1.84138 11.584 1.83071 11.2587 1.80938 10.928C1.79871 10.5973 1.77738 10.2773 1.74538 9.968H2.99338L3.15338 11.92L2.92938 11.936C3.03604 11.456 3.22271 11.0613 3.48938 10.752C3.75604 10.4427 4.07071 10.2133 4.43338 10.064C4.79604 9.904 5.17471 9.824 5.56938 9.824C5.72938 9.824 5.86804 9.82933 5.98538 9.84C6.11338 9.85067 6.23071 9.87733 6.33738 9.92L6.32138 11.072C6.16138 11.0187 6.01204 10.9867 5.87338 10.976C5.74538 10.9547 5.59604 10.944 5.42538 10.944C4.95604 10.944 4.54538 11.056 4.19338 11.28C3.85204 11.504 3.59071 11.792 3.40938 12.144C3.23871 12.496 3.15338 12.8693 3.15338 13.264V18H1.84138ZM11.1601 18.144C9.90146 18.144 8.90946 17.7813 8.18413 17.056C7.45879 16.32 7.09613 15.3013 7.09613 14C7.09613 13.1573 7.25613 12.4267 7.57613 11.808C7.89613 11.1787 8.34413 10.6933 8.92013 10.352C9.49613 10 10.1575 9.824 10.9041 9.824C11.6401 9.824 12.2588 9.97867 12.7601 10.288C13.2615 10.5973 13.6455 11.04 13.9121 11.616C14.1788 12.1813 14.3121 12.8533 14.3121 13.632V14.112H8.08813V13.296H13.4641L13.1921 13.504C13.1921 12.6507 13.0001 11.984 12.6161 11.504C12.2321 11.024 11.6615 10.784 10.9041 10.784C10.1041 10.784 9.48013 11.0667 9.03213 11.632C8.58413 12.1867 8.36013 12.9387 8.36013 13.888V14.032C8.36013 15.0347 8.60546 15.7973 9.09613 16.32C9.59746 16.832 10.2961 17.088 11.1921 17.088C11.6721 17.088 12.1201 17.0187 12.5361 16.88C12.9628 16.7307 13.3681 16.4907 13.7521 16.16L14.2001 17.072C13.8481 17.4133 13.4001 17.68 12.8561 17.872C12.3228 18.0533 11.7575 18.144 11.1601 18.144ZM19.3513 18.144C18.6366 18.144 18.0126 17.9787 17.4793 17.648C16.9459 17.3067 16.5299 16.8267 16.2313 16.208C15.9433 15.5893 15.7993 14.848 15.7993 13.984C15.7993 13.1093 15.9433 12.3627 16.2313 11.744C16.5299 11.1253 16.9459 10.6507 17.4793 10.32C18.0126 9.98933 18.6366 9.824 19.3513 9.824C20.0766 9.824 20.7006 10.0107 21.2233 10.384C21.7566 10.7467 22.1086 11.2427 22.2793 11.872H22.0873L22.2633 9.968H23.5113C23.4793 10.2773 23.4473 10.592 23.4153 10.912C23.3939 11.2213 23.3833 11.5253 23.3833 11.824V18H22.0873V16.112H22.2633C22.0926 16.7413 21.7406 17.2373 21.2073 17.6C20.6739 17.9627 20.0553 18.144 19.3513 18.144ZM19.6073 17.088C20.3753 17.088 20.9833 16.8267 21.4313 16.304C21.8793 15.7707 22.1033 14.9973 22.1033 13.984C22.1033 12.96 21.8793 12.1867 21.4313 11.664C20.9833 11.1307 20.3753 10.864 19.6073 10.864C18.8499 10.864 18.2419 11.1307 17.7833 11.664C17.3353 12.1867 17.1113 12.96 17.1113 13.984C17.1113 14.9973 17.3353 15.7707 17.7833 16.304C18.2419 16.8267 18.8499 17.088 19.6073 17.088ZM28.929 18.144C28.225 18.144 27.6063 17.9787 27.073 17.648C26.5397 17.3067 26.1237 16.8267 25.825 16.208C25.537 15.5893 25.393 14.848 25.393 13.984C25.393 13.1093 25.537 12.3627 25.825 11.744C26.1237 11.1253 26.5397 10.6507 27.073 10.32C27.6063 9.98933 28.225 9.824 28.929 9.824C29.6543 9.824 30.2783 10.0053 30.801 10.368C31.3343 10.7307 31.6917 11.2213 31.873 11.84H31.681V6.224H32.977V18H31.697V16.08H31.873C31.7023 16.72 31.3503 17.2267 30.817 17.6C30.2837 17.9627 29.6543 18.144 28.929 18.144ZM29.201 17.088C29.9583 17.088 30.5663 16.8267 31.025 16.304C31.4837 15.7707 31.713 14.9973 31.713 13.984C31.713 12.96 31.4837 12.1867 31.025 11.664C30.5663 11.1307 29.9583 10.864 29.201 10.864C28.4437 10.864 27.8357 11.1307 27.377 11.664C26.929 12.1867 26.705 12.96 26.705 13.984C26.705 14.9973 26.929 15.7707 27.377 16.304C27.8357 16.8267 28.4437 17.088 29.201 17.088ZM39.6546 18V11.824C39.6546 11.5253 39.6386 11.2213 39.6066 10.912C39.5853 10.592 39.5586 10.2773 39.5266 9.968H40.7746L40.9346 11.728H40.7426C40.956 11.12 41.292 10.6507 41.7506 10.32C42.22 9.98933 42.7853 9.824 43.4466 9.824C44.1186 9.824 44.6626 9.984 45.0786 10.304C45.5053 10.624 45.7933 11.12 45.9426 11.792H45.7026C45.9053 11.184 46.2626 10.704 46.7746 10.352C47.2866 10 47.884 9.824 48.5666 9.824C49.452 9.824 50.1186 10.08 50.5666 10.592C51.0146 11.0933 51.2386 11.888 51.2386 12.976V18H49.9426V13.056C49.9426 12.2987 49.8093 11.7493 49.5426 11.408C49.276 11.056 48.8493 10.88 48.2626 10.88C47.5906 10.88 47.0573 11.1147 46.6626 11.584C46.2786 12.0427 46.0866 12.6613 46.0866 13.44V18H44.7906V13.056C44.7906 12.2987 44.6573 11.7493 44.3906 11.408C44.124 11.056 43.6973 10.88 43.1106 10.88C42.4386 10.88 41.9106 11.1147 41.5266 11.584C41.1426 12.0427 40.9506 12.6613 40.9506 13.44V18H39.6546ZM56.9975 18.144C56.2295 18.144 55.5575 17.9787 54.9815 17.648C54.4162 17.3067 53.9788 16.8267 53.6695 16.208C53.3602 15.5787 53.2055 14.8373 53.2055 13.984C53.2055 13.12 53.3602 12.3787 53.6695 11.76C53.9788 11.1413 54.4162 10.6667 54.9815 10.336C55.5575 9.99467 56.2295 9.824 56.9975 9.824C57.7762 9.824 58.4482 9.99467 59.0135 10.336C59.5895 10.6667 60.0322 11.1413 60.3415 11.76C60.6615 12.3787 60.8215 13.12 60.8215 13.984C60.8215 14.8373 60.6615 15.5787 60.3415 16.208C60.0322 16.8267 59.5895 17.3067 59.0135 17.648C58.4482 17.9787 57.7762 18.144 56.9975 18.144ZM56.9975 17.088C57.7655 17.088 58.3735 16.8267 58.8215 16.304C59.2695 15.7707 59.4935 14.9973 59.4935 13.984C59.4935 12.96 59.2642 12.1867 58.8055 11.664C58.3575 11.1307 57.7548 10.864 56.9975 10.864C56.2402 10.864 55.6375 11.1307 55.1895 11.664C54.7415 12.1867 54.5175 12.96 54.5175 13.984C54.5175 14.9973 54.7415 15.7707 55.1895 16.304C55.6375 16.8267 56.2402 17.088 56.9975 17.088ZM62.8101 18V11.904C62.8101 11.584 62.7995 11.2587 62.7781 10.928C62.7675 10.5973 62.7461 10.2773 62.7141 9.968H63.9621L64.1221 11.92L63.8981 11.936C64.0048 11.456 64.1915 11.0613 64.4581 10.752C64.7248 10.4427 65.0395 10.2133 65.4021 10.064C65.7648 9.904 66.1435 9.824 66.5381 9.824C66.6981 9.824 66.8368 9.82933 66.9541 9.84C67.0821 9.85067 67.1995 9.87733 67.3061 9.92L67.2901 11.072C67.1301 11.0187 66.9808 10.9867 66.8421 10.976C66.7141 10.9547 66.5648 10.944 66.3941 10.944C65.9248 10.944 65.5141 11.056 65.1621 11.28C64.8208 11.504 64.5595 11.792 64.3781 12.144C64.2075 12.496 64.1221 12.8693 64.1221 13.264V18H62.8101ZM72.1289 18.144C70.8702 18.144 69.8782 17.7813 69.1529 17.056C68.4275 16.32 68.0649 15.3013 68.0649 14C68.0649 13.1573 68.2249 12.4267 68.5449 11.808C68.8649 11.1787 69.3129 10.6933 69.8889 10.352C70.4649 10 71.1262 9.824 71.8729 9.824C72.6089 9.824 73.2275 9.97867 73.7289 10.288C74.2302 10.5973 74.6142 11.04 74.8809 11.616C75.1475 12.1813 75.2809 12.8533 75.2809 13.632V14.112H69.0569V13.296H74.4329L74.1609 13.504C74.1609 12.6507 73.9689 11.984 73.5849 11.504C73.2009 11.024 72.6302 10.784 71.8729 10.784C71.0729 10.784 70.4489 11.0667 70.0009 11.632C69.5529 12.1867 69.3289 12.9387 69.3289 13.888V14.032C69.3289 15.0347 69.5742 15.7973 70.0649 16.32C70.5662 16.832 71.2649 17.088 72.1609 17.088C72.6409 17.088 73.0889 17.0187 73.5049 16.88C73.9315 16.7307 74.3369 16.4907 74.7209 16.16L75.1689 17.072C74.8169 17.4133 74.3689 17.68 73.8249 17.872C73.2915 18.0533 72.7262 18.144 72.1289 18.144Z" fill="#193364"/>
<g clip-path="url(#clip0_1506_4333)">
<path d="M81 17L85 13L81 9" stroke="#193364" stroke-width="1.5" stroke-linecap="round" stroke-linejoin="round"/>
</g>
<defs>
<clipPath id="clip0_1506_4333">
<rect width="6" height="10" fill="white" transform="translate(80 8)"/>
</clipPath>
</defs>
</svg>
