<svg width="102" height="21" viewBox="0 0 102 21" fill="none" xmlns="http://www.w3.org/2000/svg">
<g clip-path="url(#clip0_16_20)">
<path d="M11.3333 3.66663L14 6.33329L11.3333 8.99996" stroke="#193364" stroke-width="1.5" stroke-linecap="round" stroke-linejoin="round"/>
<path d="M2 10.3334V9.00004C2 8.2928 2.28095 7.61452 2.78105 7.11442C3.28115 6.61433 3.95942 6.33337 4.66667 6.33337H14" stroke="#193364" stroke-width="1.5" stroke-linecap="round" stroke-linejoin="round"/>
<path d="M4.66667 18.3333L2 15.6667L4.66667 13" stroke="#193364" stroke-width="1.5" stroke-linecap="round" stroke-linejoin="round"/>
<path d="M14 11.6666V13C14 13.7072 13.719 14.3855 13.219 14.8856C12.7189 15.3857 12.0406 15.6666 11.3333 15.6666H2" stroke="#193364" stroke-width="1.5" stroke-linecap="round" stroke-linejoin="round"/>
</g>
<path d="M23.078 16V10.666C23.078 10.386 23.0687 10.1013 23.05 9.812C23.0407 9.52267 23.022 9.24267 22.994 8.972H24.086L24.226 10.68L24.03 10.694C24.1233 10.274 24.2867 9.92867 24.52 9.658C24.7533 9.38733 25.0287 9.18667 25.346 9.056C25.6633 8.916 25.9947 8.846 26.34 8.846C26.48 8.846 26.6013 8.85067 26.704 8.86C26.816 8.86933 26.9187 8.89267 27.012 8.93L26.998 9.938C26.858 9.89133 26.7273 9.86333 26.606 9.854C26.494 9.83533 26.3633 9.826 26.214 9.826C25.8033 9.826 25.444 9.924 25.136 10.12C24.8373 10.316 24.6087 10.568 24.45 10.876C24.3007 11.184 24.226 11.5107 24.226 11.856V16H23.078ZM31.2319 16.126C30.1306 16.126 29.2626 15.8087 28.6279 15.174C27.9932 14.53 27.6759 13.6387 27.6759 12.5C27.6759 11.7627 27.8159 11.1233 28.0959 10.582C28.3759 10.0313 28.7679 9.60667 29.2719 9.308C29.7759 9 30.3546 8.846 31.0079 8.846C31.6519 8.846 32.1932 8.98133 32.6319 9.252C33.0706 9.52267 33.4066 9.91 33.6399 10.414C33.8732 10.9087 33.9899 11.4967 33.9899 12.178V12.598H28.5439V11.884H33.2479L33.0099 12.066C33.0099 11.3193 32.8419 10.736 32.5059 10.316C32.1699 9.896 31.6706 9.686 31.0079 9.686C30.3079 9.686 29.7619 9.93333 29.3699 10.428C28.9779 10.9133 28.7819 11.5713 28.7819 12.402V12.528C28.7819 13.4053 28.9966 14.0727 29.4259 14.53C29.8646 14.978 30.4759 15.202 31.2599 15.202C31.6799 15.202 32.0719 15.1413 32.4359 15.02C32.8092 14.8893 33.1639 14.6793 33.4999 14.39L33.8919 15.188C33.5839 15.4867 33.1919 15.72 32.7159 15.888C32.2492 16.0467 31.7546 16.126 31.2319 16.126ZM35.7251 19.024V10.596C35.7251 10.3347 35.7111 10.0687 35.6831 9.798C35.6645 9.518 35.6411 9.24267 35.6131 8.972H36.7051L36.8591 10.638H36.6911C36.8405 10.0873 37.1438 9.65333 37.6011 9.336C38.0585 9.00933 38.6045 8.846 39.2391 8.846C39.8738 8.846 40.4198 8.99067 40.8771 9.28C41.3438 9.56933 41.7078 9.98467 41.9691 10.526C42.2305 11.0673 42.3611 11.7207 42.3611 12.486C42.3611 13.242 42.2305 13.8907 41.9691 14.432C41.7171 14.9733 41.3578 15.3933 40.8911 15.692C40.4245 15.9813 39.8738 16.126 39.2391 16.126C38.6138 16.126 38.0725 15.9673 37.6151 15.65C37.1578 15.3327 36.8545 14.8987 36.7051 14.348H36.8591V19.024H35.7251ZM39.0151 15.202C39.6871 15.202 40.2191 14.9733 40.6111 14.516C41.0125 14.0493 41.2131 13.3727 41.2131 12.486C41.2131 11.59 41.0125 10.9133 40.6111 10.456C40.2191 9.98933 39.6871 9.756 39.0151 9.756C38.3525 9.756 37.8205 9.98933 37.4191 10.456C37.0271 10.9133 36.8311 11.59 36.8311 12.486C36.8311 13.3727 37.0271 14.0493 37.4191 14.516C37.8205 14.9733 38.3525 15.202 39.0151 15.202ZM47.2417 16.126C46.1403 16.126 45.2723 15.8087 44.6377 15.174C44.003 14.53 43.6857 13.6387 43.6857 12.5C43.6857 11.7627 43.8257 11.1233 44.1057 10.582C44.3857 10.0313 44.7777 9.60667 45.2817 9.308C45.7857 9 46.3643 8.846 47.0177 8.846C47.6617 8.846 48.203 8.98133 48.6417 9.252C49.0803 9.52267 49.4163 9.91 49.6497 10.414C49.883 10.9087 49.9997 11.4967 49.9997 12.178V12.598H44.5537V11.884H49.2577L49.0197 12.066C49.0197 11.3193 48.8517 10.736 48.5157 10.316C48.1797 9.896 47.6803 9.686 47.0177 9.686C46.3177 9.686 45.7717 9.93333 45.3797 10.428C44.9877 10.9133 44.7917 11.5713 44.7917 12.402V12.528C44.7917 13.4053 45.0063 14.0727 45.4357 14.53C45.8743 14.978 46.4857 15.202 47.2697 15.202C47.6897 15.202 48.0817 15.1413 48.4457 15.02C48.819 14.8893 49.1737 14.6793 49.5097 14.39L49.9017 15.188C49.5937 15.4867 49.2017 15.72 48.7257 15.888C48.259 16.0467 47.7643 16.126 47.2417 16.126ZM54.4089 16.126C53.7836 16.126 53.2376 15.9813 52.7709 15.692C52.3042 15.3933 51.9402 14.9733 51.6789 14.432C51.4269 13.8907 51.3009 13.242 51.3009 12.486C51.3009 11.7207 51.4269 11.0673 51.6789 10.526C51.9402 9.98467 52.3042 9.56933 52.7709 9.28C53.2376 8.99067 53.7836 8.846 54.4089 8.846C55.0436 8.846 55.5896 9.00933 56.0469 9.336C56.5136 9.65333 56.8216 10.0873 56.9709 10.638H56.8029L56.9569 8.972H58.0489C58.0209 9.24267 57.9929 9.518 57.9649 9.798C57.9462 10.0687 57.9369 10.3347 57.9369 10.596V16H56.8029V14.348H56.9569C56.8076 14.8987 56.4996 15.3327 56.0329 15.65C55.5662 15.9673 55.0249 16.126 54.4089 16.126ZM54.6329 15.202C55.3049 15.202 55.8369 14.9733 56.2289 14.516C56.6209 14.0493 56.8169 13.3727 56.8169 12.486C56.8169 11.59 56.6209 10.9133 56.2289 10.456C55.8369 9.98933 55.3049 9.756 54.6329 9.756C53.9702 9.756 53.4382 9.98933 53.0369 10.456C52.6449 10.9133 52.4489 11.59 52.4489 12.486C52.4489 13.3727 52.6449 14.0493 53.0369 14.516C53.4382 14.9733 53.9702 15.202 54.6329 15.202ZM62.6214 16.126C61.9308 16.126 61.4034 15.93 61.0394 15.538C60.6754 15.1367 60.4934 14.5347 60.4934 13.732V9.854H59.1214V8.972H60.4934V7.054L61.6274 6.732V8.972H63.6434V9.854H61.6274V13.606C61.6274 14.166 61.7208 14.5673 61.9074 14.81C62.1034 15.0433 62.3928 15.16 62.7754 15.16C62.9528 15.16 63.1114 15.146 63.2514 15.118C63.3914 15.0807 63.5174 15.0387 63.6294 14.992V15.944C63.4988 16 63.3401 16.042 63.1534 16.07C62.9761 16.1073 62.7988 16.126 62.6214 16.126ZM71.5584 16.126C70.8864 16.126 70.2984 15.9813 69.7944 15.692C69.2997 15.3933 68.917 14.9733 68.6464 14.432C68.3757 13.8813 68.2404 13.2327 68.2404 12.486C68.2404 11.73 68.3757 11.0813 68.6464 10.54C68.917 9.99867 69.2997 9.58333 69.7944 9.294C70.2984 8.99533 70.8864 8.846 71.5584 8.846C72.2397 8.846 72.8277 8.99533 73.3224 9.294C73.8264 9.58333 74.2137 9.99867 74.4844 10.54C74.7644 11.0813 74.9044 11.73 74.9044 12.486C74.9044 13.2327 74.7644 13.8813 74.4844 14.432C74.2137 14.9733 73.8264 15.3933 73.3224 15.692C72.8277 15.9813 72.2397 16.126 71.5584 16.126ZM71.5584 15.202C72.2304 15.202 72.7624 14.9733 73.1544 14.516C73.5464 14.0493 73.7424 13.3727 73.7424 12.486C73.7424 11.59 73.5417 10.9133 73.1404 10.456C72.7484 9.98933 72.221 9.756 71.5584 9.756C70.8957 9.756 70.3684 9.98933 69.9764 10.456C69.5844 10.9133 69.3884 11.59 69.3884 12.486C69.3884 13.3727 69.5844 14.0493 69.9764 14.516C70.3684 14.9733 70.8957 15.202 71.5584 15.202ZM76.6444 16V10.666C76.6444 10.386 76.6351 10.1013 76.6164 9.812C76.6071 9.52267 76.5884 9.24267 76.5604 8.972H77.6524L77.7924 10.68L77.5964 10.694C77.6897 10.274 77.8531 9.92867 78.0864 9.658C78.3197 9.38733 78.5951 9.18667 78.9124 9.056C79.2297 8.916 79.5611 8.846 79.9064 8.846C80.0464 8.846 80.1677 8.85067 80.2704 8.86C80.3824 8.86933 80.4851 8.89267 80.5784 8.93L80.5644 9.938C80.4244 9.89133 80.2937 9.86333 80.1724 9.854C80.0604 9.83533 79.9297 9.826 79.7804 9.826C79.3697 9.826 79.0104 9.924 78.7024 10.12C78.4037 10.316 78.1751 10.568 78.0164 10.876C77.8671 11.184 77.7924 11.5107 77.7924 11.856V16H76.6444ZM84.3363 16.126C83.7203 16.126 83.179 15.9813 82.7123 15.692C82.2456 15.3933 81.8816 14.9733 81.6203 14.432C81.3683 13.8907 81.2423 13.242 81.2423 12.486C81.2423 11.7207 81.3683 11.0673 81.6203 10.526C81.8816 9.98467 82.2456 9.56933 82.7123 9.28C83.179 8.99067 83.7203 8.846 84.3363 8.846C84.971 8.846 85.517 9.00467 85.9743 9.322C86.441 9.63933 86.7536 10.0687 86.9123 10.61H86.7443V5.696H87.8783V16H86.7583V14.32H86.9123C86.763 14.88 86.455 15.3233 85.9883 15.65C85.5216 15.9673 84.971 16.126 84.3363 16.126ZM84.5743 15.202C85.237 15.202 85.769 14.9733 86.1703 14.516C86.5716 14.0493 86.7723 13.3727 86.7723 12.486C86.7723 11.59 86.5716 10.9133 86.1703 10.456C85.769 9.98933 85.237 9.756 84.5743 9.756C83.9116 9.756 83.3796 9.98933 82.9783 10.456C82.5863 10.9133 82.3903 11.59 82.3903 12.486C82.3903 13.3727 82.5863 14.0493 82.9783 14.516C83.3796 14.9733 83.9116 15.202 84.5743 15.202ZM93.1928 16.126C92.0915 16.126 91.2235 15.8087 90.5888 15.174C89.9542 14.53 89.6368 13.6387 89.6368 12.5C89.6368 11.7627 89.7768 11.1233 90.0568 10.582C90.3368 10.0313 90.7288 9.60667 91.2328 9.308C91.7368 9 92.3155 8.846 92.9688 8.846C93.6128 8.846 94.1542 8.98133 94.5928 9.252C95.0315 9.52267 95.3675 9.91 95.6008 10.414C95.8342 10.9087 95.9508 11.4967 95.9508 12.178V12.598H90.5048V11.884H95.2088L94.9708 12.066C94.9708 11.3193 94.8028 10.736 94.4668 10.316C94.1308 9.896 93.6315 9.686 92.9688 9.686C92.2688 9.686 91.7228 9.93333 91.3308 10.428C90.9388 10.9133 90.7428 11.5713 90.7428 12.402V12.528C90.7428 13.4053 90.9575 14.0727 91.3868 14.53C91.8255 14.978 92.4368 15.202 93.2208 15.202C93.6408 15.202 94.0328 15.1413 94.3968 15.02C94.7702 14.8893 95.1248 14.6793 95.4608 14.39L95.8528 15.188C95.5448 15.4867 95.1528 15.72 94.6768 15.888C94.2102 16.0467 93.7155 16.126 93.1928 16.126ZM97.6581 16V10.666C97.6581 10.386 97.6487 10.1013 97.6301 9.812C97.6207 9.52267 97.6021 9.24267 97.5741 8.972H98.6661L98.8061 10.68L98.6101 10.694C98.7034 10.274 98.8667 9.92867 99.1001 9.658C99.3334 9.38733 99.6087 9.18667 99.9261 9.056C100.243 8.916 100.575 8.846 100.92 8.846C101.06 8.846 101.181 8.85067 101.284 8.86C101.396 8.86933 101.499 8.89267 101.592 8.93L101.578 9.938C101.438 9.89133 101.307 9.86333 101.186 9.854C101.074 9.83533 100.943 9.826 100.794 9.826C100.383 9.826 100.024 9.924 99.7161 10.12C99.4174 10.316 99.1887 10.568 99.0301 10.876C98.8807 11.184 98.8061 11.5107 98.8061 11.856V16H97.6581Z" fill="#193364"/>
<defs>
<clipPath id="clip0_16_20">
<rect width="16" height="16" fill="white" transform="translate(0 3)"/>
</clipPath>
</defs>
</svg>
