<svg width="33" height="16" viewBox="0 0 33 16" fill="none" xmlns="http://www.w3.org/2000/svg">
<rect width="33" height="16" rx="6" fill="#51BA74"/>
<path d="M8.592 11.08C8.13867 11.08 7.72 11.024 7.336 10.912C6.95733 10.7947 6.632 10.6347 6.36 10.432L6.68 9.624C6.86133 9.752 7.05067 9.86133 7.248 9.952C7.44533 10.0373 7.656 10.104 7.88 10.152C8.104 10.1947 8.34133 10.216 8.592 10.216C9.01333 10.216 9.31733 10.1467 9.504 10.008C9.69067 9.86933 9.784 9.688 9.784 9.464C9.784 9.26667 9.72 9.11733 9.592 9.016C9.464 8.90933 9.23467 8.82133 8.904 8.752L8 8.568C7.48267 8.46133 7.096 8.28267 6.84 8.032C6.584 7.78133 6.456 7.44533 6.456 7.024C6.456 6.672 6.54933 6.36533 6.736 6.104C6.92267 5.84267 7.184 5.64 7.52 5.496C7.856 5.352 8.248 5.28 8.696 5.28C9.096 5.28 9.46667 5.33867 9.808 5.456C10.1493 5.568 10.4347 5.73067 10.664 5.944L10.344 6.712C10.1147 6.52 9.864 6.37867 9.592 6.288C9.32 6.192 9.016 6.144 8.68 6.144C8.30133 6.144 8.00533 6.21867 7.792 6.368C7.584 6.512 7.48 6.712 7.48 6.968C7.48 7.16533 7.544 7.32267 7.672 7.44C7.80533 7.55733 8.02933 7.648 8.344 7.712L9.24 7.888C9.77333 7.99467 10.168 8.17067 10.424 8.416C10.68 8.656 10.808 8.98133 10.808 9.392C10.808 9.728 10.7173 10.024 10.536 10.28C10.3547 10.5307 10.0987 10.728 9.768 10.872C9.43733 11.0107 9.04533 11.08 8.592 11.08ZM11.1172 11L13.6692 5.36H14.5332L17.1172 11H16.0692L15.3812 9.416L15.7972 9.696H12.4132L12.8452 9.416L12.1572 11H11.1172ZM14.0932 6.464L12.9652 9.136L12.7572 8.888H15.4452L15.2772 9.136L14.1252 6.464H14.0932ZM17.7412 11V5.36H18.7732V10.128H21.4292V11H17.7412ZM22.2178 11V5.36H26.0178V6.168H23.2098V7.728H25.8338V8.544H23.2098V10.184H26.0178V11H22.2178Z" fill="white"/>
</svg>
