<svg width="68" height="24" viewBox="0 0 68 24" fill="none" xmlns="http://www.w3.org/2000/svg">
<path fill-rule="evenodd" clip-rule="evenodd" d="M7.33333 5.5C4.66396 5.5 2.5 7.66396 2.5 10.3333C2.5 13.0027 4.66396 15.1667 7.33333 15.1667C10.0027 15.1667 12.1667 13.0027 12.1667 10.3333C12.1667 7.66396 10.0027 5.5 7.33333 5.5ZM1.5 10.3333C1.5 7.11167 4.11167 4.5 7.33333 4.5C10.555 4.5 13.1667 7.11167 13.1667 10.3333C13.1667 13.555 10.555 16.1667 7.33333 16.1667C4.11167 16.1667 1.5 13.555 1.5 10.3333Z" fill="#60708E"/>
<path fill-rule="evenodd" clip-rule="evenodd" d="M10.6286 13.6286C10.8889 13.3682 11.3111 13.3682 11.5714 13.6286L14.4714 16.5286C14.7318 16.7889 14.7318 17.2111 14.4714 17.4714C14.2111 17.7318 13.7889 17.7318 13.5286 17.4714L10.6286 14.5714C10.3682 14.3111 10.3682 13.8889 10.6286 13.6286Z" fill="#60708E"/>
<path d="M27.452 17.126C26.6587 17.126 25.9493 17.0233 25.324 16.818C24.6987 16.6127 24.1527 16.3187 23.686 15.936L24.106 15.012C24.4327 15.2547 24.7593 15.46 25.086 15.628C25.422 15.7867 25.7813 15.908 26.164 15.992C26.5467 16.0667 26.976 16.104 27.452 16.104C28.2827 16.104 28.8987 15.95 29.3 15.642C29.7013 15.334 29.902 14.9233 29.902 14.41C29.902 13.9713 29.762 13.6353 29.482 13.402C29.202 13.1687 28.712 12.982 28.012 12.842L26.542 12.548C25.6367 12.3613 24.96 12.058 24.512 11.638C24.0733 11.218 23.854 10.6487 23.854 9.93C23.854 9.342 24.0033 8.82867 24.302 8.39C24.61 7.95133 25.0393 7.61067 25.59 7.368C26.1407 7.12533 26.78 7.004 27.508 7.004C28.208 7.004 28.8473 7.11133 29.426 7.326C30.0047 7.53133 30.4993 7.83467 30.91 8.236L30.504 9.132C30.0653 8.74 29.6033 8.46 29.118 8.292C28.642 8.11467 28.1007 8.026 27.494 8.026C26.7287 8.026 26.122 8.194 25.674 8.53C25.2353 8.85667 25.016 9.30467 25.016 9.874C25.016 10.3313 25.156 10.6907 25.436 10.952C25.716 11.204 26.178 11.3953 26.822 11.526L28.306 11.82C29.258 12.016 29.958 12.31 30.406 12.702C30.854 13.094 31.078 13.6447 31.078 14.354C31.078 14.8953 30.9287 15.376 30.63 15.796C30.3407 16.216 29.9253 16.5427 29.384 16.776C28.8427 17.0093 28.1987 17.126 27.452 17.126ZM35.9507 17.126C34.8493 17.126 33.9813 16.8087 33.3467 16.174C32.712 15.53 32.3947 14.6387 32.3947 13.5C32.3947 12.7627 32.5347 12.1233 32.8147 11.582C33.0947 11.0313 33.4867 10.6067 33.9907 10.308C34.4947 10 35.0733 9.846 35.7267 9.846C36.3707 9.846 36.912 9.98133 37.3507 10.252C37.7893 10.5227 38.1253 10.91 38.3587 11.414C38.592 11.9087 38.7087 12.4967 38.7087 13.178V13.598H33.2627V12.884H37.9667L37.7287 13.066C37.7287 12.3193 37.5607 11.736 37.2247 11.316C36.8887 10.896 36.3893 10.686 35.7267 10.686C35.0267 10.686 34.4807 10.9333 34.0887 11.428C33.6967 11.9133 33.5007 12.5713 33.5007 13.402V13.528C33.5007 14.4053 33.7153 15.0727 34.1447 15.53C34.5833 15.978 35.1947 16.202 35.9787 16.202C36.3987 16.202 36.7907 16.1413 37.1547 16.02C37.528 15.8893 37.8827 15.6793 38.2187 15.39L38.6107 16.188C38.3027 16.4867 37.9107 16.72 37.4347 16.888C36.968 17.0467 36.4733 17.126 35.9507 17.126ZM43.1179 17.126C42.4926 17.126 41.9466 16.9813 41.4799 16.692C41.0132 16.3933 40.6492 15.9733 40.3879 15.432C40.1359 14.8907 40.0099 14.242 40.0099 13.486C40.0099 12.7207 40.1359 12.0673 40.3879 11.526C40.6492 10.9847 41.0132 10.5693 41.4799 10.28C41.9466 9.99067 42.4926 9.846 43.1179 9.846C43.7526 9.846 44.2986 10.0093 44.7559 10.336C45.2226 10.6533 45.5306 11.0873 45.6799 11.638H45.5119L45.6659 9.972H46.7579C46.7299 10.2427 46.7019 10.518 46.6739 10.798C46.6552 11.0687 46.6459 11.3347 46.6459 11.596V17H45.5119V15.348H45.6659C45.5166 15.8987 45.2086 16.3327 44.7419 16.65C44.2752 16.9673 43.7339 17.126 43.1179 17.126ZM43.3419 16.202C44.0139 16.202 44.5459 15.9733 44.9379 15.516C45.3299 15.0493 45.5259 14.3727 45.5259 13.486C45.5259 12.59 45.3299 11.9133 44.9379 11.456C44.5459 10.9893 44.0139 10.756 43.3419 10.756C42.6792 10.756 42.1472 10.9893 41.7459 11.456C41.3539 11.9133 41.1579 12.59 41.1579 13.486C41.1579 14.3727 41.3539 15.0493 41.7459 15.516C42.1472 15.9733 42.6792 16.202 43.3419 16.202ZM48.8104 17V11.666C48.8104 11.386 48.8011 11.1013 48.7824 10.812C48.7731 10.5227 48.7544 10.2427 48.7264 9.972H49.8184L49.9584 11.68L49.7624 11.694C49.8558 11.274 50.0191 10.9287 50.2524 10.658C50.4858 10.3873 50.7611 10.1867 51.0784 10.056C51.3958 9.916 51.7271 9.846 52.0724 9.846C52.2124 9.846 52.3338 9.85067 52.4364 9.86C52.5484 9.86933 52.6511 9.89267 52.7444 9.93L52.7304 10.938C52.5904 10.8913 52.4598 10.8633 52.3384 10.854C52.2264 10.8353 52.0958 10.826 51.9464 10.826C51.5358 10.826 51.1764 10.924 50.8684 11.12C50.5698 11.316 50.3411 11.568 50.1824 11.876C50.0331 12.184 49.9584 12.5107 49.9584 12.856V17H48.8104ZM56.7963 17.126C56.1057 17.126 55.5037 16.9767 54.9903 16.678C54.4863 16.3793 54.0943 15.9547 53.8143 15.404C53.5437 14.8533 53.4083 14.2 53.4083 13.444C53.4083 12.6787 53.5483 12.03 53.8283 11.498C54.1083 10.9567 54.5003 10.546 55.0043 10.266C55.5177 9.986 56.115 9.846 56.7963 9.846C57.2443 9.846 57.6783 9.92533 58.0983 10.084C58.5277 10.2427 58.8823 10.4667 59.1623 10.756L58.7563 11.568C58.4763 11.2973 58.1683 11.0967 57.8323 10.966C57.5057 10.8353 57.1837 10.77 56.8663 10.77C56.1383 10.77 55.5737 10.9987 55.1723 11.456C54.771 11.9133 54.5703 12.5807 54.5703 13.458C54.5703 14.326 54.771 14.998 55.1723 15.474C55.5737 15.95 56.1383 16.188 56.8663 16.188C57.1743 16.188 57.4917 16.1273 57.8183 16.006C58.1543 15.8847 58.467 15.684 58.7563 15.404L59.1623 16.202C58.873 16.5007 58.5137 16.7293 58.0843 16.888C57.655 17.0467 57.2257 17.126 56.7963 17.126ZM60.774 17V6.696H61.908V11.526H61.726C61.922 10.9753 62.2486 10.56 62.706 10.28C63.1726 9.99067 63.7093 9.846 64.316 9.846C65.156 9.846 65.7813 10.0747 66.192 10.532C66.6026 10.98 66.808 11.6613 66.808 12.576V17H65.674V12.646C65.674 11.9927 65.5433 11.5167 65.282 11.218C65.03 10.9193 64.6193 10.77 64.05 10.77C63.3966 10.77 62.874 10.9707 62.482 11.372C62.0993 11.7733 61.908 12.3007 61.908 12.954V17H60.774Z" fill="#60708E"/>
</svg>
