<svg width="78" height="21" viewBox="0 0 78 21" fill="none" xmlns="http://www.w3.org/2000/svg">
<g clip-path="url(#clip0_25_867)">
<path d="M73.3334 5.75H64.5834V13.3333H73.3334V5.75Z" stroke="#F5C102" stroke-width="1.5" stroke-linecap="round" stroke-linejoin="round"/>
<path d="M73.3334 8.66669H75.6667L77.4167 10.4167V13.3334H73.3334V8.66669Z" stroke="#F5C102" stroke-width="1.5" stroke-linecap="round" stroke-linejoin="round"/>
<path d="M67.2083 16.25C68.0137 16.25 68.6667 15.5971 68.6667 14.7916C68.6667 13.9862 68.0137 13.3333 67.2083 13.3333C66.4029 13.3333 65.75 13.9862 65.75 14.7916C65.75 15.5971 66.4029 16.25 67.2083 16.25Z" stroke="#F5C102" stroke-width="1.5" stroke-linecap="round" stroke-linejoin="round"/>
<path d="M74.7917 16.25C75.5971 16.25 76.25 15.5971 76.25 14.7916C76.25 13.9862 75.5971 13.3333 74.7917 13.3333C73.9863 13.3333 73.3334 13.9862 73.3334 14.7916C73.3334 15.5971 73.9863 16.25 74.7917 16.25Z" stroke="#F5C102" stroke-width="1.5" stroke-linecap="round" stroke-linejoin="round"/>
</g>
<path d="M5.42661 16.126C4.63328 16.126 3.92394 16.0233 3.29861 15.818C2.67328 15.6127 2.12728 15.3187 1.66061 14.936L2.08061 14.012C2.40728 14.2547 2.73394 14.46 3.06061 14.628C3.39661 14.7867 3.75594 14.908 4.13861 14.992C4.52128 15.0667 4.95061 15.104 5.42661 15.104C6.25728 15.104 6.87328 14.95 7.27461 14.642C7.67594 14.334 7.87661 13.9233 7.87661 13.41C7.87661 12.9713 7.73661 12.6353 7.45661 12.402C7.17661 12.1687 6.68661 11.982 5.98661 11.842L4.51661 11.548C3.61128 11.3613 2.93461 11.058 2.48661 10.638C2.04794 10.218 1.82861 9.64867 1.82861 8.93C1.82861 8.342 1.97794 7.82867 2.27661 7.39C2.58461 6.95133 3.01394 6.61067 3.56461 6.368C4.11528 6.12533 4.75461 6.004 5.48261 6.004C6.18261 6.004 6.82194 6.11133 7.40061 6.326C7.97928 6.53133 8.47394 6.83467 8.88461 7.236L8.47861 8.132C8.03994 7.74 7.57794 7.46 7.09261 7.292C6.61661 7.11467 6.07528 7.026 5.46861 7.026C4.70328 7.026 4.09661 7.194 3.64861 7.53C3.20994 7.85667 2.99061 8.30467 2.99061 8.874C2.99061 9.33133 3.13061 9.69067 3.41061 9.952C3.69061 10.204 4.15261 10.3953 4.79661 10.526L6.28061 10.82C7.23261 11.016 7.93261 11.31 8.38061 11.702C8.82861 12.094 9.05261 12.6447 9.05261 13.354C9.05261 13.8953 8.90328 14.376 8.60461 14.796C8.31528 15.216 7.89994 15.5427 7.35861 15.776C6.81728 16.0093 6.17328 16.126 5.42661 16.126ZM10.8033 16V5.696H11.9373V10.526H11.7553C11.9513 9.97533 12.2779 9.56 12.7353 9.28C13.2019 8.99067 13.7386 8.846 14.3453 8.846C15.1853 8.846 15.8106 9.07467 16.2213 9.532C16.6319 9.98 16.8373 10.6613 16.8373 11.576V16H15.7033V11.646C15.7033 10.9927 15.5726 10.5167 15.3113 10.218C15.0593 9.91933 14.6486 9.77 14.0793 9.77C13.4259 9.77 12.9033 9.97067 12.5113 10.372C12.1286 10.7733 11.9373 11.3007 11.9373 11.954V16H10.8033ZM19.0064 16V8.972H20.1404V16H19.0064ZM18.8664 7.376V6.102H20.2664V7.376H18.8664ZM22.3423 19.024V10.596C22.3423 10.3347 22.3283 10.0687 22.3003 9.798C22.2817 9.518 22.2583 9.24267 22.2303 8.972H23.3223L23.4763 10.638H23.3083C23.4577 10.0873 23.761 9.65333 24.2183 9.336C24.6757 9.00933 25.2217 8.846 25.8563 8.846C26.491 8.846 27.037 8.99067 27.4943 9.28C27.961 9.56933 28.325 9.98467 28.5863 10.526C28.8477 11.0673 28.9783 11.7207 28.9783 12.486C28.9783 13.242 28.8477 13.8907 28.5863 14.432C28.3343 14.9733 27.975 15.3933 27.5083 15.692C27.0417 15.9813 26.491 16.126 25.8563 16.126C25.231 16.126 24.6897 15.9673 24.2323 15.65C23.775 15.3327 23.4717 14.8987 23.3223 14.348H23.4763V19.024H22.3423ZM25.6323 15.202C26.3043 15.202 26.8363 14.9733 27.2283 14.516C27.6297 14.0493 27.8303 13.3727 27.8303 12.486C27.8303 11.59 27.6297 10.9133 27.2283 10.456C26.8363 9.98933 26.3043 9.756 25.6323 9.756C24.9697 9.756 24.4377 9.98933 24.0363 10.456C23.6443 10.9133 23.4483 11.59 23.4483 12.486C23.4483 13.3727 23.6443 14.0493 24.0363 14.516C24.4377 14.9733 24.9697 15.202 25.6323 15.202ZM30.7369 19.024V10.596C30.7369 10.3347 30.7229 10.0687 30.6949 9.798C30.6762 9.518 30.6529 9.24267 30.6249 8.972H31.7169L31.8709 10.638H31.7029C31.8522 10.0873 32.1555 9.65333 32.6129 9.336C33.0702 9.00933 33.6162 8.846 34.2509 8.846C34.8855 8.846 35.4315 8.99067 35.8889 9.28C36.3555 9.56933 36.7195 9.98467 36.9809 10.526C37.2422 11.0673 37.3729 11.7207 37.3729 12.486C37.3729 13.242 37.2422 13.8907 36.9809 14.432C36.7289 14.9733 36.3695 15.3933 35.9029 15.692C35.4362 15.9813 34.8855 16.126 34.2509 16.126C33.6255 16.126 33.0842 15.9673 32.6269 15.65C32.1695 15.3327 31.8662 14.8987 31.7169 14.348H31.8709V19.024H30.7369ZM34.0269 15.202C34.6989 15.202 35.2309 14.9733 35.6229 14.516C36.0242 14.0493 36.2249 13.3727 36.2249 12.486C36.2249 11.59 36.0242 10.9133 35.6229 10.456C35.2309 9.98933 34.6989 9.756 34.0269 9.756C33.3642 9.756 32.8322 9.98933 32.4309 10.456C32.0389 10.9133 31.8429 11.59 31.8429 12.486C31.8429 13.3727 32.0389 14.0493 32.4309 14.516C32.8322 14.9733 33.3642 15.202 34.0269 15.202ZM39.1314 16V8.972H40.2654V16H39.1314ZM38.9914 7.376V6.102H40.3914V7.376H38.9914ZM42.4673 16V10.596C42.4673 10.3347 42.4533 10.0687 42.4253 9.798C42.4067 9.518 42.3833 9.24267 42.3553 8.972H43.4473L43.5873 10.512H43.4193C43.6247 9.97067 43.9513 9.56 44.3993 9.28C44.8567 8.99067 45.384 8.846 45.9813 8.846C46.812 8.846 47.4373 9.07 47.8573 9.518C48.2867 9.95667 48.5013 10.652 48.5013 11.604V16H47.3673V11.674C47.3673 11.0113 47.232 10.5307 46.9613 10.232C46.7 9.924 46.2893 9.77 45.7293 9.77C45.076 9.77 44.558 9.97067 44.1753 10.372C43.7927 10.7733 43.6013 11.31 43.6013 11.982V16H42.4673ZM53.7645 19.122C53.1578 19.122 52.5978 19.0473 52.0845 18.898C51.5711 18.7487 51.1091 18.52 50.6985 18.212L51.0345 17.358C51.3238 17.5633 51.6085 17.7267 51.8885 17.848C52.1685 17.9693 52.4578 18.058 52.7565 18.114C53.0551 18.1793 53.3725 18.212 53.7085 18.212C54.3991 18.212 54.9218 18.03 55.2765 17.666C55.6311 17.302 55.8085 16.784 55.8085 16.112V14.054H55.9485C55.7991 14.6047 55.4911 15.0433 55.0245 15.37C54.5578 15.6873 54.0118 15.846 53.3865 15.846C52.7425 15.846 52.1825 15.706 51.7065 15.426C51.2398 15.1367 50.8758 14.7307 50.6145 14.208C50.3625 13.676 50.2365 13.0507 50.2365 12.332C50.2365 11.6227 50.3625 11.0067 50.6145 10.484C50.8758 9.96133 51.2398 9.56 51.7065 9.28C52.1825 8.99067 52.7425 8.846 53.3865 8.846C54.0211 8.846 54.5671 9.00467 55.0245 9.322C55.4911 9.63933 55.7991 10.078 55.9485 10.638L55.8085 10.498L55.9345 8.972H57.0405C57.0031 9.24267 56.9751 9.518 56.9565 9.798C56.9378 10.0687 56.9285 10.3347 56.9285 10.596V15.958C56.9285 17.0033 56.6578 17.792 56.1165 18.324C55.5845 18.856 54.8005 19.122 53.7645 19.122ZM53.5965 14.922C54.2778 14.922 54.8145 14.698 55.2065 14.25C55.5985 13.7927 55.7945 13.1533 55.7945 12.332C55.7945 11.5107 55.5985 10.876 55.2065 10.428C54.8145 9.98 54.2778 9.756 53.5965 9.756C52.9245 9.756 52.3878 9.98 51.9865 10.428C51.5851 10.876 51.3845 11.5107 51.3845 12.332C51.3845 13.1533 51.5851 13.7927 51.9865 14.25C52.3878 14.698 52.9245 14.922 53.5965 14.922Z" fill="#F5C102"/>
<defs>
<clipPath id="clip0_25_867">
<rect width="14" height="14" fill="white" transform="translate(64 4)"/>
</clipPath>
</defs>
</svg>
