<svg width="20" height="20" viewBox="0 0 20 20" fill="none" xmlns="http://www.w3.org/2000/svg">
<path d="M17.312 17.2738L16.2483 5.56875C16.2183 5.24625 15.9483 5 15.6245 5H13.7495V3.75C13.7495 2.745 13.3608 1.80125 12.6545 1.095C11.9483 0.38875 11.0045 0 9.99951 0C7.93201 0 6.24951 1.6825 6.24951 3.75V5H4.37451C4.05076 5 3.78076 5.24625 3.75201 5.56875L2.68826 17.2738C2.62451 17.9713 2.85951 18.6688 3.33201 19.1863C3.80451 19.7038 4.47701 20 5.17826 20H14.822C15.5233 20 16.1958 19.7038 16.6683 19.1863C17.1408 18.6688 17.3745 17.9713 17.312 17.2738ZM7.49951 3.75C7.49951 2.37125 8.62076 1.25 9.99951 1.25C10.6708 1.25 11.2995 1.50875 11.7708 1.97875C12.242 2.44875 12.4995 3.07875 12.4995 3.75V5H7.49951V3.75ZM15.7445 18.3438C15.5045 18.605 15.177 18.75 14.8208 18.75H5.17826C4.82326 18.75 4.49451 18.605 4.25576 18.3425C4.01576 18.08 3.90201 17.7413 3.93451 17.3862L4.94576 6.25H6.24951V8.125C6.24951 8.47 6.52951 8.75 6.87451 8.75C7.21951 8.75 7.49951 8.47 7.49951 8.125V6.25H12.4995V8.125C12.4995 8.47 12.7795 8.75 13.1245 8.75C13.4695 8.75 13.7495 8.47 13.7495 8.125V6.25H15.0533L16.0658 17.3875C16.0983 17.7412 15.9845 18.0813 15.7445 18.3438Z" fill="#60708E"/>
</svg>
