<svg width="81" height="21" viewBox="0 0 81 21" fill="none" xmlns="http://www.w3.org/2000/svg">
<path d="M4.452 16.126C3.65867 16.126 2.94933 16.0233 2.324 15.818C1.69867 15.6127 1.15267 15.3187 0.686 14.936L1.106 14.012C1.43267 14.2547 1.75933 14.46 2.086 14.628C2.422 14.7867 2.78133 14.908 3.164 14.992C3.54667 15.0667 3.976 15.104 4.452 15.104C5.28267 15.104 5.89867 14.95 6.3 14.642C6.70133 14.334 6.902 13.9233 6.902 13.41C6.902 12.9713 6.762 12.6353 6.482 12.402C6.202 12.1687 5.712 11.982 5.012 11.842L3.542 11.548C2.63667 11.3613 1.96 11.058 1.512 10.638C1.07333 10.218 0.854 9.64867 0.854 8.93C0.854 8.342 1.00333 7.82867 1.302 7.39C1.61 6.95133 2.03933 6.61067 2.59 6.368C3.14067 6.12533 3.78 6.004 4.508 6.004C5.208 6.004 5.84733 6.11133 6.426 6.326C7.00467 6.53133 7.49933 6.83467 7.91 7.236L7.504 8.132C7.06533 7.74 6.60333 7.46 6.118 7.292C5.642 7.11467 5.10067 7.026 4.494 7.026C3.72867 7.026 3.122 7.194 2.674 7.53C2.23533 7.85667 2.016 8.30467 2.016 8.874C2.016 9.33133 2.156 9.69067 2.436 9.952C2.716 10.204 3.178 10.3953 3.822 10.526L5.306 10.82C6.258 11.016 6.958 11.31 7.406 11.702C7.854 12.094 8.078 12.6447 8.078 13.354C8.078 13.8953 7.92867 14.376 7.63 14.796C7.34067 15.216 6.92533 15.5427 6.384 15.776C5.84267 16.0093 5.19867 16.126 4.452 16.126ZM12.7127 16.126C12.0407 16.126 11.4527 15.9813 10.9487 15.692C10.454 15.3933 10.0713 14.9733 9.80066 14.432C9.52999 13.8813 9.39466 13.2327 9.39466 12.486C9.39466 11.73 9.52999 11.0813 9.80066 10.54C10.0713 9.99867 10.454 9.58333 10.9487 9.294C11.4527 8.99533 12.0407 8.846 12.7127 8.846C13.394 8.846 13.982 8.99533 14.4767 9.294C14.9807 9.58333 15.368 9.99867 15.6387 10.54C15.9187 11.0813 16.0587 11.73 16.0587 12.486C16.0587 13.2327 15.9187 13.8813 15.6387 14.432C15.368 14.9733 14.9807 15.3933 14.4767 15.692C13.982 15.9813 13.394 16.126 12.7127 16.126ZM12.7127 15.202C13.3847 15.202 13.9167 14.9733 14.3087 14.516C14.7007 14.0493 14.8967 13.3727 14.8967 12.486C14.8967 11.59 14.696 10.9133 14.2947 10.456C13.9027 9.98933 13.3753 9.756 12.7127 9.756C12.05 9.756 11.5227 9.98933 11.1307 10.456C10.7387 10.9133 10.5427 11.59 10.5427 12.486C10.5427 13.3727 10.7387 14.0493 11.1307 14.516C11.5227 14.9733 12.05 15.202 12.7127 15.202ZM17.7987 16V10.666C17.7987 10.386 17.7894 10.1013 17.7707 9.812C17.7614 9.52267 17.7427 9.24267 17.7147 8.972H18.8067L18.9467 10.68L18.7507 10.694C18.844 10.274 19.0074 9.92867 19.2407 9.658C19.474 9.38733 19.7494 9.18667 20.0667 9.056C20.384 8.916 20.7154 8.846 21.0607 8.846C21.2007 8.846 21.322 8.85067 21.4247 8.86C21.5367 8.86933 21.6394 8.89267 21.7327 8.93L21.7187 9.938C21.5787 9.89133 21.448 9.86333 21.3267 9.854C21.2147 9.83533 21.084 9.826 20.9347 9.826C20.524 9.826 20.1647 9.924 19.8567 10.12C19.558 10.316 19.3294 10.568 19.1707 10.876C19.0214 11.184 18.9467 11.5107 18.9467 11.856V16H17.7987ZM25.7738 16.126C25.0831 16.126 24.5558 15.93 24.1918 15.538C23.8278 15.1367 23.6458 14.5347 23.6458 13.732V9.854H22.2738V8.972H23.6458V7.054L24.7798 6.732V8.972H26.7958V9.854H24.7798V13.606C24.7798 14.166 24.8731 14.5673 25.0598 14.81C25.2558 15.0433 25.5451 15.16 25.9278 15.16C26.1051 15.16 26.2638 15.146 26.4038 15.118C26.5438 15.0807 26.6698 15.0387 26.7818 14.992V15.944C26.6511 16 26.4924 16.042 26.3058 16.07C26.1284 16.1073 25.9511 16.126 25.7738 16.126ZM28.1763 16V8.972H29.3103V16H28.1763ZM28.0363 7.376V6.102H29.4363V7.376H28.0363ZM31.5123 16V10.596C31.5123 10.3347 31.4983 10.0687 31.4703 9.798C31.4516 9.518 31.4283 9.24267 31.4003 8.972H32.4923L32.6323 10.512H32.4642C32.6696 9.97067 32.9963 9.56 33.4443 9.28C33.9016 8.99067 34.4289 8.846 35.0263 8.846C35.8569 8.846 36.4823 9.07 36.9023 9.518C37.3316 9.95667 37.5463 10.652 37.5463 11.604V16H36.4123V11.674C36.4123 11.0113 36.2769 10.5307 36.0063 10.232C35.7449 9.924 35.3343 9.77 34.7743 9.77C34.1209 9.77 33.6029 9.97067 33.2203 10.372C32.8376 10.7733 32.6463 11.31 32.6463 11.982V16H31.5123ZM42.8094 19.122C42.2027 19.122 41.6427 19.0473 41.1294 18.898C40.616 18.7487 40.154 18.52 39.7434 18.212L40.0794 17.358C40.3687 17.5633 40.6534 17.7267 40.9334 17.848C41.2134 17.9693 41.5027 18.058 41.8014 18.114C42.1 18.1793 42.4174 18.212 42.7534 18.212C43.444 18.212 43.9667 18.03 44.3214 17.666C44.676 17.302 44.8534 16.784 44.8534 16.112V14.054H44.9934C44.844 14.6047 44.536 15.0433 44.0694 15.37C43.6027 15.6873 43.0567 15.846 42.4314 15.846C41.7874 15.846 41.2274 15.706 40.7514 15.426C40.2847 15.1367 39.9207 14.7307 39.6594 14.208C39.4074 13.676 39.2814 13.0507 39.2814 12.332C39.2814 11.6227 39.4074 11.0067 39.6594 10.484C39.9207 9.96133 40.2847 9.56 40.7514 9.28C41.2274 8.99067 41.7874 8.846 42.4314 8.846C43.066 8.846 43.612 9.00467 44.0694 9.322C44.536 9.63933 44.844 10.078 44.9934 10.638L44.8534 10.498L44.9794 8.972H46.0854C46.048 9.24267 46.02 9.518 46.0014 9.798C45.9827 10.0687 45.9734 10.3347 45.9734 10.596V15.958C45.9734 17.0033 45.7027 17.792 45.1614 18.324C44.6294 18.856 43.8454 19.122 42.8094 19.122ZM42.6414 14.922C43.3227 14.922 43.8594 14.698 44.2514 14.25C44.6434 13.7927 44.8394 13.1533 44.8394 12.332C44.8394 11.5107 44.6434 10.876 44.2514 10.428C43.8594 9.98 43.3227 9.756 42.6414 9.756C41.9694 9.756 41.4327 9.98 41.0314 10.428C40.63 10.876 40.4294 11.5107 40.4294 12.332C40.4294 13.1533 40.63 13.7927 41.0314 14.25C41.4327 14.698 41.9694 14.922 42.6414 14.922ZM55.3293 16.126C54.6946 16.126 54.1486 15.9673 53.6913 15.65C53.234 15.3233 52.926 14.88 52.7673 14.32H52.9213V16H51.8013V5.696H52.9353V10.61H52.7673C52.926 10.0687 53.234 9.63933 53.6913 9.322C54.1486 9.00467 54.6946 8.846 55.3293 8.846C55.964 8.846 56.51 8.99533 56.9673 9.294C57.434 9.58333 57.7933 9.99867 58.0453 10.54C58.3066 11.0813 58.4373 11.73 58.4373 12.486C58.4373 13.242 58.3066 13.8907 58.0453 14.432C57.784 14.9733 57.42 15.3933 56.9533 15.692C56.496 15.9813 55.9546 16.126 55.3293 16.126ZM55.0913 15.202C55.754 15.202 56.286 14.9733 56.6873 14.516C57.0886 14.0587 57.2893 13.382 57.2893 12.486C57.2893 11.59 57.0886 10.9133 56.6873 10.456C56.286 9.98933 55.754 9.756 55.0913 9.756C54.4286 9.756 53.8966 9.98933 53.4953 10.456C53.1033 10.9133 52.9073 11.59 52.9073 12.486C52.9073 13.3727 53.1033 14.0493 53.4953 14.516C53.8966 14.9733 54.4286 15.202 55.0913 15.202ZM59.8201 19.178L59.5541 18.24C59.9928 18.1373 60.3568 18.016 60.6461 17.876C60.9448 17.7453 61.1921 17.568 61.3881 17.344C61.5841 17.12 61.7521 16.84 61.8921 16.504L62.2561 15.678L62.2281 16.154L59.1621 8.972H60.3941L62.9281 15.146H62.5641L65.0701 8.972H66.2601L63.0121 16.588C62.8255 17.036 62.6201 17.4093 62.3961 17.708C62.1721 18.016 61.9295 18.2633 61.6681 18.45C61.4161 18.646 61.1361 18.8 60.8281 18.912C60.5201 19.024 60.1841 19.1127 59.8201 19.178Z" fill="#60708E"/>
<g clip-path="url(#clip0_47_3001)">
<path d="M73.8 9.79999L77 13L80.2 9.79999" stroke="#60708E" stroke-width="1.2" stroke-linecap="round" stroke-linejoin="round"/>
</g>
<defs>
<clipPath id="clip0_47_3001">
<rect width="4.8" height="8" fill="white" transform="translate(81 9) rotate(90)"/>
</clipPath>
</defs>
</svg>
