<svg width="216" height="40" viewBox="0 0 216 40" fill="none" xmlns="http://www.w3.org/2000/svg">
<path d="M20 3.33325L25.15 13.7666L36.6667 15.4499L28.3334 23.5666L30.3 35.0332L20 29.6166L9.70004 35.0332L11.6667 23.5666L3.33337 15.4499L14.85 13.7666L20 3.33325Z" fill="#E8EFF4"/>
<path d="M63.9999 3.33325L69.1499 13.7666L80.6666 15.4499L72.3333 23.5666L74.2999 35.0332L63.9999 29.6166L53.6999 35.0332L55.6666 23.5666L47.3333 15.4499L58.8499 13.7666L63.9999 3.33325Z" fill="#E8EFF4"/>
<path d="M108 3.33325L113.15 13.7666L124.667 15.4499L116.333 23.5666L118.3 35.0332L108 29.6166L97.6999 35.0332L99.6666 23.5666L91.3333 15.4499L102.85 13.7666L108 3.33325Z" fill="#E8EFF4"/>
<path d="M152 3.33325L157.15 13.7666L168.667 15.4499L160.333 23.5666L162.3 35.0332L152 29.6166L141.7 35.0332L143.667 23.5666L135.333 15.4499L146.85 13.7666L152 3.33325Z" fill="#E8EFF4"/>
<path d="M196 3.33325L201.15 13.7666L212.667 15.4499L204.333 23.5666L206.3 35.0332L196 29.6166L185.7 35.0332L187.667 23.5666L179.333 15.4499L190.85 13.7666L196 3.33325Z" fill="#E8EFF4"/>
</svg>
