<svg width="50" height="50" viewBox="0 0 50 50" fill="none" xmlns="http://www.w3.org/2000/svg">
<rect x="0.5" y="0.5" width="49" height="49" rx="24.5" stroke="#E8EFF4"/>
<path d="M31.6667 32V30.3333C31.6667 29.4493 31.3155 28.6014 30.6904 27.9763C30.0652 27.3512 29.2174 27 28.3333 27H21.6667C20.7826 27 19.9348 27.3512 19.3097 27.9763C18.6845 28.6014 18.3333 29.4493 18.3333 30.3333V32" stroke="#60708E" stroke-width="1.5" stroke-linecap="round" stroke-linejoin="round"/>
<path d="M25 23.6667C26.8409 23.6667 28.3333 22.1743 28.3333 20.3333C28.3333 18.4924 26.8409 17 25 17C23.159 17 21.6667 18.4924 21.6667 20.3333C21.6667 22.1743 23.159 23.6667 25 23.6667Z" stroke="#60708E" stroke-width="1.5" stroke-linecap="round" stroke-linejoin="round"/>
</svg>
