<svg width="71" height="24" viewBox="0 0 71 24" fill="none" xmlns="http://www.w3.org/2000/svg">
<path d="M4.24138 18L0.801375 9.968H2.20938L5.08938 17.04H4.65738L7.56938 9.968H8.91338L5.47338 18H4.24138ZM10.3734 18V9.968H11.6694V18H10.3734ZM10.2134 8.144V6.688H11.8134V8.144H10.2134ZM17.7539 18.144C16.4952 18.144 15.5032 17.7813 14.7779 17.056C14.0525 16.32 13.6899 15.3013 13.6899 14C13.6899 13.1573 13.8499 12.4267 14.1699 11.808C14.4899 11.1787 14.9379 10.6933 15.5139 10.352C16.0899 10 16.7512 9.824 17.4979 9.824C18.2339 9.824 18.8525 9.97867 19.3539 10.288C19.8552 10.5973 20.2392 11.04 20.5059 11.616C20.7725 12.1813 20.9059 12.8533 20.9059 13.632V14.112H14.6819V13.296H20.0579L19.7859 13.504C19.7859 12.6507 19.5939 11.984 19.2099 11.504C18.8259 11.024 18.2552 10.784 17.4979 10.784C16.6979 10.784 16.0739 11.0667 15.6259 11.632C15.1779 12.1867 14.9539 12.9387 14.9539 13.888V14.032C14.9539 15.0347 15.1992 15.7973 15.6899 16.32C16.1912 16.832 16.8899 17.088 17.7859 17.088C18.2659 17.088 18.7139 17.0187 19.1299 16.88C19.5565 16.7307 19.9619 16.4907 20.3459 16.16L20.7939 17.072C20.4419 17.4133 19.9939 17.68 19.4499 17.872C18.9165 18.0533 18.3512 18.144 17.7539 18.144ZM24.9393 18L21.9633 9.968H23.3393L25.8193 17.04H25.4033L27.9633 9.968H29.0833L31.5953 17.04H31.1953L33.6913 9.968H35.0033L32.0113 18H30.7633L28.1713 10.816H28.8113L26.2033 18H24.9393ZM48.1013 18.144C47.3866 18.144 46.7626 17.9787 46.2293 17.648C45.6959 17.3067 45.2799 16.8267 44.9813 16.208C44.6933 15.5893 44.5493 14.848 44.5493 13.984C44.5493 13.1093 44.6933 12.3627 44.9813 11.744C45.2799 11.1253 45.6959 10.6507 46.2293 10.32C46.7626 9.98933 47.3866 9.824 48.1013 9.824C48.8266 9.824 49.4506 10.0107 49.9733 10.384C50.5066 10.7467 50.8586 11.2427 51.0293 11.872H50.8373L51.0133 9.968H52.2613C52.2293 10.2773 52.1973 10.592 52.1653 10.912C52.1439 11.2213 52.1333 11.5253 52.1333 11.824V18H50.8373V16.112H51.0133C50.8426 16.7413 50.4906 17.2373 49.9573 17.6C49.4239 17.9627 48.8053 18.144 48.1013 18.144ZM48.3573 17.088C49.1253 17.088 49.7333 16.8267 50.1813 16.304C50.6293 15.7707 50.8533 14.9973 50.8533 13.984C50.8533 12.96 50.6293 12.1867 50.1813 11.664C49.7333 11.1307 49.1253 10.864 48.3573 10.864C47.5999 10.864 46.9919 11.1307 46.5333 11.664C46.0853 12.1867 45.8613 12.96 45.8613 13.984C45.8613 14.9973 46.0853 15.7707 46.5333 16.304C46.9919 16.8267 47.5999 17.088 48.3573 17.088ZM54.639 18V6.224H55.935V18H54.639ZM58.4515 18V6.224H59.7475V18H58.4515Z" fill="#193364"/>
<g clip-path="url(#clip0_27_1228)">
<path d="M66 17L70 13L66 9" stroke="#193364" stroke-width="1.5" stroke-linecap="round" stroke-linejoin="round"/>
</g>
<defs>
<clipPath id="clip0_27_1228">
<rect width="6" height="10" fill="white" transform="translate(65 8)"/>
</clipPath>
</defs>
</svg>
